<svg width="1200" height="272" viewBox="0 0 1200 272" fill="none" xmlns="http://www.w3.org/2000/svg">
<path d="M137.072 92.8064L109.576 97.7333C108.426 94.175 106.599 90.7877 104.097 87.5715C101.662 84.3553 98.3473 81.7208 94.1536 79.6679C89.9599 77.615 84.7177 76.5885 78.4271 76.5885C69.8368 76.5885 62.6669 78.5388 56.9174 82.4393C51.168 86.2713 48.2932 91.2325 48.2932 97.3228C48.2932 102.592 50.221 106.835 54.0765 110.051C57.932 113.267 64.155 115.901 72.7453 117.954L97.5018 123.702C111.842 127.056 122.529 132.222 129.564 139.202C136.598 146.182 140.115 155.249 140.115 166.403C140.115 175.846 137.41 184.263 131.999 191.653C126.655 198.975 119.181 204.723 109.576 208.898C100.038 213.072 88.9791 215.159 76.3979 215.159C58.9466 215.159 44.7083 211.395 33.6828 203.868C22.6574 196.272 15.8933 185.495 13.3906 171.535L42.7129 167.019C44.5392 174.751 48.2932 180.602 53.975 184.571C59.6569 188.471 67.0635 190.422 76.195 190.422C86.1382 190.422 94.086 188.334 100.038 184.16C105.991 179.918 108.967 174.751 108.967 168.661C108.967 163.734 107.141 159.594 103.488 156.241C99.9031 152.888 94.3903 150.356 86.9499 148.645L60.57 142.794C46.0273 139.441 35.2724 134.104 28.3054 126.782C21.406 119.46 17.9564 110.188 17.9564 98.9651C17.9564 89.6586 20.5267 81.5155 25.6674 74.5356C30.8081 67.5558 37.9104 62.1156 46.9742 58.2151C56.0381 54.2462 66.4209 52.2617 78.1228 52.2617C94.9653 52.2617 108.223 55.9569 117.895 63.3473C127.568 70.6693 133.96 80.489 137.072 92.8064Z" fill="white"/>
<path d="M181.218 271.1C176.686 271.1 172.56 270.724 168.84 269.971C165.12 269.287 162.347 268.534 160.52 267.713L167.825 242.565C173.372 244.071 178.31 244.721 182.639 244.515C186.968 244.31 190.789 242.668 194.104 239.588C197.486 236.509 200.462 231.479 203.032 224.5L206.787 214.03L149.765 54.3146H182.233L221.701 176.667H223.325L262.793 54.3146H295.362L231.137 233.019C228.161 241.231 224.373 248.176 219.774 253.856C215.174 259.604 209.695 263.915 203.337 266.789C196.979 269.663 189.606 271.1 181.218 271.1Z" fill="white"/>
<path d="M342.781 118.365V211.977H312.444V54.3146H341.563V79.9758H343.491C347.076 71.6274 352.69 64.9212 360.334 59.8574C368.045 54.7936 377.751 52.2617 389.453 52.2617C400.072 52.2617 409.373 54.5199 417.355 59.0363C425.336 63.4842 431.525 70.1219 435.922 78.9493C440.319 87.7768 442.517 98.6914 442.517 111.693V211.977H412.18V115.388C412.18 103.96 409.238 95.0304 403.353 88.598C397.468 82.0971 389.385 78.8467 379.104 78.8467C372.069 78.8467 365.812 80.3864 360.334 83.4657C354.922 86.5451 350.627 91.0614 347.448 97.0148C344.337 102.9 342.781 110.016 342.781 118.365Z" fill="white"/>
<path d="M537.42 215.159C522.336 215.159 509.349 211.703 498.459 204.792C487.636 197.812 479.316 188.198 473.499 175.949C467.682 163.7 464.773 149.672 464.773 133.864C464.773 117.852 467.75 103.721 473.702 91.472C479.654 79.1546 488.042 69.5402 498.864 62.6288C509.687 55.7174 522.437 52.2617 537.115 52.2617C548.952 52.2617 559.504 54.4857 568.771 58.9336C578.038 63.3131 585.512 69.4718 591.194 77.4097C596.943 85.3475 600.359 94.6198 601.442 105.226H571.916C570.293 97.836 566.573 91.472 560.756 86.1345C555.006 80.797 547.295 78.1282 537.622 78.1282C529.167 78.1282 521.761 80.3864 515.403 84.9027C509.112 89.3507 504.208 95.7147 500.691 103.995C497.173 112.206 495.415 121.923 495.415 133.146C495.415 144.642 497.14 154.564 500.589 162.913C504.039 171.261 508.909 177.728 515.2 182.313C521.558 186.897 529.032 189.19 537.622 189.19C543.372 189.19 548.58 188.129 553.247 186.008C557.982 183.818 561.939 180.705 565.118 176.667C568.365 172.63 570.631 167.771 571.916 162.092H601.442C600.359 172.288 597.079 181.389 591.6 189.395C586.121 197.401 578.782 203.697 569.583 208.282C560.451 212.867 549.73 215.159 537.42 215.159Z" fill="white"/>
<path d="M642.443 213.927C636.896 213.927 632.128 211.943 628.137 207.974C624.146 203.936 622.151 199.078 622.151 193.398C622.151 187.787 624.146 182.997 628.137 179.028C632.128 174.991 636.896 172.972 642.443 172.972C647.989 172.972 652.758 174.991 656.749 179.028C660.74 182.997 662.735 187.787 662.735 193.398C662.735 197.162 661.788 200.618 659.894 203.765C658.068 206.845 655.633 209.308 652.589 211.156C649.545 213.003 646.163 213.927 642.443 213.927Z" fill="white"/>
<path d="M727.498 1.74414V211.961H709.438V1.74414H727.498Z" fill="white" fill-opacity="0.5"/>
<path d="M807.384 215.553C797.982 215.553 789.391 213.706 781.613 210.01C773.834 206.247 767.645 200.841 763.045 193.792C758.446 186.676 756.146 178.054 756.146 167.926C756.146 160.125 757.6 153.556 760.509 148.218C763.417 142.881 767.544 138.501 772.887 135.08C778.231 131.658 784.555 128.955 791.86 126.971C799.166 124.986 807.215 123.447 816.008 122.352C824.734 121.257 832.107 120.299 838.127 119.478C844.214 118.657 848.848 117.356 852.027 115.577C855.206 113.798 856.795 110.924 856.795 106.955V103.26C856.795 92.5163 853.616 84.0652 847.258 77.9065C840.968 71.6794 831.904 68.5659 820.067 68.5659C808.838 68.5659 799.673 71.0636 792.571 76.0589C785.536 81.0543 780.598 86.9393 777.757 93.7138L760.61 87.4525C764.128 78.8303 768.998 71.9531 775.221 66.8209C781.444 61.6203 788.411 57.8908 796.122 55.6326C803.833 53.306 811.645 52.1427 819.559 52.1427C825.512 52.1427 831.701 52.9297 838.127 54.5035C844.62 56.0774 850.64 58.8146 856.187 62.7151C861.733 66.5472 866.231 71.9189 869.681 78.8303C873.131 85.6733 874.856 94.3639 874.856 104.902V211.961H856.795V187.018H855.679C853.515 191.671 850.302 196.188 846.041 200.567C841.779 204.947 836.436 208.539 830.01 211.345C823.584 214.15 816.042 215.553 807.384 215.553ZM809.819 198.822C819.424 198.822 827.744 196.667 834.778 192.355C841.813 188.044 847.224 182.33 851.012 175.214C854.868 168.029 856.795 160.125 856.795 151.503V128.716C855.443 130.016 853.177 131.179 849.998 132.206C846.886 133.232 843.267 134.156 839.141 134.977C835.083 135.73 831.024 136.38 826.966 136.927C822.907 137.475 819.255 137.954 816.008 138.364C807.215 139.459 799.707 141.17 793.484 143.497C787.261 145.823 782.492 149.039 779.178 153.145C775.863 157.183 774.206 162.383 774.206 168.747C774.206 178.327 777.588 185.752 784.352 191.021C791.116 196.222 799.605 198.822 809.819 198.822Z" fill="white" fill-opacity="0.5"/>
<path d="M915.223 211.961V1.74414H933.384V84.3732H935.008C937.037 79.6515 939.945 74.793 943.733 69.7976C947.589 64.8022 952.628 60.628 958.851 57.275C965.142 53.8535 973.056 52.1427 982.593 52.1427C995.377 52.1427 1006.61 55.5642 1016.28 62.4072C1025.95 69.1817 1033.49 78.6935 1038.9 90.9424C1044.32 103.123 1047.02 117.322 1047.02 133.54C1047.02 149.826 1044.32 164.094 1038.9 176.343C1033.56 188.592 1026.05 198.138 1016.38 204.981C1006.77 211.824 995.614 215.245 982.897 215.245C973.428 215.245 965.514 213.534 959.155 210.113C952.865 206.691 947.792 202.483 943.936 197.488C940.081 192.424 937.105 187.497 935.008 182.707H932.776V211.961H915.223ZM933.08 133.232C933.08 145.96 934.94 157.251 938.66 167.105C942.448 176.89 947.859 184.589 954.894 190.2C961.996 195.743 970.587 198.514 980.665 198.514C991.014 198.514 999.774 195.64 1006.94 189.892C1014.11 184.075 1019.56 176.24 1023.28 166.386C1027 156.532 1028.86 145.481 1028.86 133.232C1028.86 121.12 1027 110.205 1023.28 100.488C1019.63 90.7714 1014.21 83.073 1007.05 77.3933C999.875 71.6452 991.082 68.7712 980.665 68.7712C970.519 68.7712 961.895 71.5426 954.793 77.0854C947.758 82.5598 942.381 90.1555 938.66 99.8725C934.94 109.521 933.08 120.641 933.08 133.232Z" fill="white" fill-opacity="0.5"/>
<path d="M1179.97 88.8895L1163.43 93.6112C1161.81 88.8895 1159.51 84.6127 1156.53 80.7806C1153.56 76.9485 1149.67 73.9034 1144.87 71.6452C1140.13 69.387 1134.25 68.2579 1127.21 68.2579C1116.66 68.2579 1108 70.7898 1101.24 75.8537C1094.47 80.9175 1091.09 87.4525 1091.09 95.4588C1091.09 102.233 1093.39 107.742 1097.99 111.985C1102.66 116.159 1109.83 119.478 1119.5 121.941L1143.04 127.792C1156.09 131.008 1165.87 136.106 1172.36 143.086C1178.92 150.066 1182.2 158.825 1182.2 169.363C1182.2 178.259 1179.77 186.163 1174.9 193.074C1170.03 199.985 1163.23 205.426 1154.5 209.394C1145.85 213.295 1135.8 215.245 1124.37 215.245C1109.15 215.245 1096.6 211.79 1086.73 204.878C1076.85 197.898 1070.53 187.839 1067.76 174.701L1085.11 170.389C1087.34 179.764 1091.7 186.847 1098.19 191.637C1104.75 196.427 1113.38 198.822 1124.07 198.822C1136.04 198.822 1145.61 196.119 1152.78 190.713C1159.95 185.239 1163.53 178.396 1163.53 170.184C1163.53 163.82 1161.44 158.483 1157.24 154.172C1153.05 149.792 1146.69 146.576 1138.17 144.523L1112.7 138.364C1099.17 135.08 1089.16 129.879 1082.67 122.762C1076.18 115.646 1072.93 106.818 1072.93 96.2799C1072.93 87.5894 1075.26 79.9594 1079.93 73.3902C1084.6 66.7525 1091.02 61.5518 1099.21 57.7882C1107.39 54.0245 1116.73 52.1427 1127.21 52.1427C1141.48 52.1427 1152.88 55.4273 1161.4 61.9966C1169.99 68.4974 1176.18 77.4617 1179.97 88.8895Z" fill="white" fill-opacity="0.5"/>
</svg>
