<svg width="339" height="265" viewBox="0 0 339 265" fill="none" xmlns="http://www.w3.org/2000/svg">
<path fill-rule="evenodd" clip-rule="evenodd" d="M171.89 122.257C172.381 122.698 172.48 123.188 172.69 123.818C175.263 123.888 178.347 123.711 181.016 123.749C182.941 123.776 187.06 123.862 188.851 123.679L190.085 123.704C193.779 123.929 199.574 123.756 203.435 123.746L227.814 123.718C229.994 123.72 232.22 123.673 234.396 123.725C237.86 123.808 241.151 123.111 243.876 125.79C244.725 126.614 245.307 127.673 245.551 128.831C245.874 130.437 245.764 136.352 245.761 138.293L245.72 157.643C246.588 157.683 247.516 157.53 247.98 158.327L247.792 158.637C247.167 159.086 246.553 159.026 245.776 159.054C245.809 165.923 245.806 172.792 245.768 179.66C245.763 180.953 245.727 182.333 245.743 183.626C245.829 190.052 246.249 196.652 237.567 196.636C228.724 196.619 219.589 196.602 210.608 196.611L118.379 196.586C113.289 196.579 108.171 196.715 103.088 196.538C100.524 196.599 97.4694 194.209 97.0877 191.594C96.5984 188.239 96.7 184.093 96.6739 180.662L96.5283 159.294C95.6386 159.195 93.8642 159.168 93.6562 158.126C94.3613 157.42 95.6858 157.666 96.6249 157.723C96.682 151.385 96.6777 145.047 96.6126 138.709C96.6066 135.756 96.2881 130.697 97.1753 127.88C97.7338 126.107 100.848 124.18 102.775 123.992C105.864 123.692 109.128 123.757 112.303 123.756L154.638 123.758C159.848 123.759 165.548 123.644 170.707 123.87C170.815 123.07 170.762 122.564 171.498 122.128L171.89 122.257ZM238.732 125.408C233.518 125.142 228.214 125.324 222.939 125.342L198.081 125.265L118.716 125.303L109.416 125.33C105.75 125.328 98.7902 124.571 98.3283 129.804C98.0544 132.909 98.0636 136.208 98.0568 139.326L98.0375 153.084L98.0494 175.345C98.0448 179.707 98.015 184.103 98.0643 188.457C98.0867 190.449 98.3058 192.288 99.8598 193.648C100.834 194.499 101.668 194.951 102.972 195.017C107.192 195.234 111.615 195.188 115.851 195.208L224.432 195.185C226.804 195.17 238.277 195.345 239.907 194.948C241.088 194.668 242.165 194.057 243.011 193.187C243.58 192.604 244.124 191.725 244.174 190.913C244.311 188.643 244.274 186.261 244.276 183.985L244.279 170.886L244.256 145.951C244.263 141.158 244.312 136.26 244.299 131.457C244.289 127.389 243.018 125.626 238.732 125.408Z" fill="#6E6E73"/>
<path fill-rule="evenodd" clip-rule="evenodd" d="M169.662 176.108C173.36 175.812 174.716 176.473 175.99 180.04C179.628 180.106 183.944 179.886 187.711 179.87L215.608 179.866L225.865 179.895C227.12 179.901 231.798 179.444 232.055 180.815C230.986 181.804 224.471 181.435 222.741 181.423L210.569 181.418C199.471 181.443 187.107 181.675 176.087 181.342C175.063 183.595 174.748 184.029 172.658 185.436C169.273 186.167 167.09 184.891 166.402 181.43C159 181.581 150.951 181.387 143.486 181.392L112.188 181.528C111.562 181.526 111.042 181.594 110.657 181.21C110.567 180.708 110.507 180.613 110.717 180.184C111.817 179.872 119.605 179.92 121.239 179.911L159.146 179.853C161.216 179.847 164.321 179.745 166.266 180.063C167.116 177.935 167.683 177.138 169.662 176.108ZM173.981 178.745C172.877 177.423 171.387 177.407 169.824 177.574C166.906 179.142 167.127 182.107 169.789 183.828C170.795 183.859 171.493 183.887 172.503 183.796C173.51 183.028 174.446 182.196 174.612 180.853C174.704 180.093 174.476 179.329 173.981 178.745Z" fill="#6E6E73"/>
<path fill-rule="evenodd" clip-rule="evenodd" d="M120.909 143.062C121.285 143.08 122.173 143.139 122.423 143.339C124.408 144.928 137.329 151.197 137.323 153.456C136.559 154.577 132.551 156.938 131.212 157.792C128.942 159.246 126.434 160.362 124.21 161.913C123.655 162.299 121.812 163.703 121.235 163.628C120.561 161.869 120.612 145.817 120.909 143.062ZM122.399 145.362C122.308 148.761 122.265 152.161 122.27 155.561C122.261 157.204 122.166 159.886 122.292 161.422C124.325 160.487 128.607 157.653 130.677 156.345C131.793 155.658 134.854 153.984 135.63 153.358C133.909 152.038 124.178 145.638 122.488 145.379C122.458 145.375 122.429 145.368 122.399 145.362Z" fill="#6E6E73"/>
<path fill-rule="evenodd" clip-rule="evenodd" d="M176.689 33.039C181.329 32.6436 187.31 35.3165 190.743 38.3774C195.608 42.7137 197.199 47.7264 197.573 54.0524C198.585 54.1362 199.643 54.1027 200.653 54.1847C213.34 55.215 218.491 70.5853 209.8 79.5607C204.161 85.3842 197.508 84.4341 190.242 84.4281C190.156 85.0035 190.138 85.8249 189.615 86.1198C189.174 85.7533 189.122 85.1805 188.975 84.5872C184.79 84.2995 178.513 84.4559 174.139 84.3824L172.22 84.3618C172.098 85.1447 172.101 85.5075 171.617 86.0605L171.268 86.0523C170.792 85.6818 170.722 85.0972 170.572 84.5056C166.213 84.4599 161.853 84.4425 157.494 84.4533C155.195 84.449 152.788 84.5352 150.506 84.3325C142.387 83.6116 136.769 77.092 136.676 69.0903C136.611 65.2328 138.099 61.5111 140.805 58.7653C145.297 54.1689 150.376 53.5851 156.398 53.5447C156.977 52.1292 157.239 50.6624 157.517 49.1619C159.216 39.9911 167.739 33.6649 176.689 33.039ZM177.179 34.7504C176.448 34.7614 175.679 34.7642 174.953 34.8518C166.548 36.0408 160.834 41.4394 158.881 49.6169C158.34 51.8794 158.402 53.2812 156.422 54.7447C150.745 55.447 144.681 55.7195 140.917 60.7846C137.411 65.5015 137.315 72.8477 140.857 77.623C145.791 84.2724 154.602 82.7223 161.854 82.8428C166.308 82.9168 171.14 83.0167 175.568 82.8634L188.493 82.8213C192.126 82.8273 199.45 83.0161 202.746 82.1525C205.008 81.5614 207.072 80.3773 208.725 78.7225C211.292 76.1098 212.532 72.6479 212.481 69.0161C212.433 65.6181 211.29 61.8244 208.831 59.4073C203.874 54.5344 197.44 56.0977 196.353 55.2207C196.277 55.1596 195.551 49.7218 195.361 49.0399C192.989 40.5557 186.145 34.6166 177.179 34.7504Z" fill="#6E6E73"/>
<path fill-rule="evenodd" clip-rule="evenodd" d="M41.7074 135.902C44.9861 135.86 48.5178 136.001 51.7564 135.954C59.9162 135.837 59.9682 139.082 60.0732 145.94C60.1635 149.803 60.1443 153.668 60.0156 157.529C60.9732 157.615 61.7803 157.481 62.304 158.341L62.1547 158.675C61.6352 159.145 60.8786 159.177 60.1633 159.295C59.7137 164.556 60.484 170.2 59.7054 175.435C58.8846 180.955 51.8461 179.816 47.7683 179.794C44.3835 179.791 40.9987 179.805 37.6141 179.84C34.0151 179.873 30.4159 179.88 26.8168 179.86C16.0281 179.804 16.4691 178.953 16.3717 168.766L16.3536 149.872C16.3463 146.417 16.2338 142.84 16.5482 139.414C16.6732 138.051 19.1667 136.453 20.4462 136.234C23.1788 135.767 26.1306 135.963 28.9135 135.963L41.7074 135.902ZM42.4228 137.502C36.0899 137.602 28.674 137.25 22.4079 137.547C21.0536 137.623 19.6032 137.734 18.6913 138.853C17.3286 140.527 17.6916 145.098 17.6773 147.216L17.6436 157.79L17.6222 169.193C17.6212 171.082 17.5504 173.888 17.7028 175.718L17.7177 175.887C18.2913 176.811 19.3319 178.202 20.4433 178.288C24.5788 178.604 29.7857 178.444 33.9226 178.403C40.6595 178.335 47.568 178.6 54.2357 178.268C56.3201 178.214 57.0173 177.705 58.2953 176.021C58.6234 173.69 58.5268 170.065 58.5269 167.617C58.5438 162.759 58.5104 157.901 58.4265 153.044C58.3794 148.992 58.5366 144.833 58.2768 140.787C58.1918 139.462 57.1574 138.517 56.2024 137.681C53.6802 137.312 45.3531 137.455 42.4228 137.502Z" fill="#6E6E73"/>
<path d="M40.513 149.152C42.2061 149.29 40.9801 152.186 40.5497 153.022C39.2074 155.626 36.9487 165.338 35.5441 167.026C35.2807 166.918 34.2428 166.502 34.3859 166.156C35.8689 162.562 38.562 151.862 40.513 149.152Z" fill="#6E6E73"/>
<path d="M32.1399 152.303C32.3322 152.33 32.5717 152.388 32.7665 152.428L32.954 152.882C32.8391 154.408 29.0358 156.939 27.6279 158.152C28.8741 159.413 32.5998 161.902 32.6871 163.436C32.3152 163.869 32.4334 163.731 31.701 163.84C30.926 163.499 26.2466 158.911 25.4903 158.047C27.445 156.248 30.0839 153.967 32.1399 152.303Z" fill="#6E6E73"/>
<path d="M43.3235 152.438C45.0937 152.737 46.4808 154.509 47.8079 155.635C48.3463 156.092 50.3748 157.699 50.5021 158.254C49.9191 159.108 46.143 162.333 44.9715 163.536L44.7215 163.824C44.2558 164.034 44.1963 164.033 43.6971 163.92C43.1747 163.376 43.3567 162.965 43.8495 162.435C45.2207 160.96 46.9347 159.58 48.4199 158.22C46.5213 156.252 43.8083 155.002 43.3235 152.438Z" fill="#6E6E73"/>
<path fill-rule="evenodd" clip-rule="evenodd" d="M291.749 135.947C301.852 136.017 311.981 135.778 322.075 136.04C322.991 136.244 323.777 136.795 324.461 137.398C326.052 138.798 326.098 140.061 326.13 142.075C326.244 151.069 326.267 160.073 326.227 169.067C326.199 175.123 326.798 179.693 319.188 179.794C308.536 179.666 297.445 180.064 286.776 179.608C285.337 179.467 283.196 177.525 283.011 176.137C282.298 170.81 282.609 164.904 282.416 159.527C281.597 159.215 280.803 159.046 280.388 158.292L280.497 157.954C281.031 157.549 281.784 157.577 282.488 157.518C282.473 154.608 282.229 140.299 283.204 138.708C284.029 137.362 285.966 136.346 287.464 136.036L287.785 136.019C289.101 135.955 290.427 135.938 291.749 135.947ZM317.19 137.5C307.631 137.741 297.928 137.257 288.385 137.552C286.244 137.667 284.328 138.494 284.195 140.932C283.59 152.179 284.111 163.526 284.055 174.79C284.045 177.026 286.356 178.371 288.379 178.346C298.954 178.213 309.759 178.618 320.311 178.343C322.255 178.096 323.291 177.582 324.493 175.979C325.007 172.894 324.787 162.866 324.782 159.318L324.767 148.116C324.766 145.827 324.782 143.531 324.658 141.202C324.714 139.607 323.6 137.846 321.916 137.638C320.527 137.466 318.659 137.463 317.19 137.5Z" fill="#6E6E73"/>
<path fill-rule="evenodd" clip-rule="evenodd" d="M302.588 144.985C306.386 144.664 307.537 146.752 306.803 150.212C312.812 151.121 312.885 148.422 312.739 156.121C314.289 156.156 315.389 156.13 316.667 157.144C317.376 157.7 317.829 158.52 317.922 159.417C318.22 162.48 315.496 163.463 313.016 163.682C312.67 166.221 313.68 167.894 311.21 169.586C309.859 169.594 308.564 169.6 307.214 169.533C304.62 169.404 306.148 167.006 304.539 165.225C301.438 164.617 301.89 166.878 301.559 169.264C294.495 170.509 293.19 169.879 294.035 162.524C296.805 161.591 300.648 162.03 297.243 157.555C296.147 157.527 295.374 157.562 294.293 157.633C293.825 155.065 293.78 153.169 294.146 150.609C296.023 150.349 298.201 150.407 300.149 150.314L299.887 147.536C300.689 146.25 301.142 145.441 302.588 144.985ZM302.564 146.598C298.758 148.836 306.751 152.08 295.771 152.104C295.68 153.372 295.652 154.388 295.735 155.664C299.697 156.114 300.269 157.378 300.153 161.249C299.581 162.17 299.108 162.611 298.311 163.354L295.73 163.697C295.692 164.45 295.421 167.247 295.839 167.726C296.719 167.943 298.999 167.961 299.866 167.643C300.332 167.471 300.29 165.762 300.314 165.221C301.673 163.805 303.216 162.343 305.299 163.592C305.99 164.347 306.399 164.792 306.983 165.653L307.089 167.806C308.413 167.858 309.743 167.933 311.067 167.882C311.117 165.778 311.137 163.602 311.281 161.508C312.518 161.737 314.143 162.303 315.402 161.566C317.257 160.48 315.879 157.845 314.189 157.703C313.45 157.64 312.63 158.263 311.643 158.068C310.295 156.577 312.165 151.855 309.829 151.906C308.722 151.931 306.606 152.218 305.686 151.546C304.337 149.665 307.578 146.468 302.564 146.598Z" fill="#6E6E73"/>
<path d="M258.755 157.751C260.137 157.679 261.721 157.411 262.993 157.84C263.344 158.306 263.223 158.256 263.157 158.96C262.029 158.99 259.593 159.223 258.709 158.635C258.55 158.134 258.58 158.326 258.755 157.751Z" fill="#6E6E73"/>
<path d="M72.4379 157.743C73.6978 157.655 75.1471 157.352 76.275 157.829C76.6506 158.316 76.5361 158.303 76.5624 158.999C75.3139 159.052 73.7455 159.261 72.6397 158.754C72.2886 158.303 72.3926 158.476 72.4379 157.743Z" fill="#6E6E73"/>
<path d="M79.3882 157.763C79.4535 157.758 79.5188 157.755 79.5843 157.752C80.5315 157.706 82.7849 157.434 83.4428 158.033C83.4605 158.548 83.4732 158.368 83.0457 158.881C81.9441 159.052 79.8587 159.322 79.0176 158.491C79.095 157.966 79.0093 158.163 79.3882 157.763Z" fill="#6E6E73"/>
<path d="M265.818 157.762C266.906 157.687 269.019 157.374 269.867 157.956C270.011 158.501 269.963 158.342 269.796 158.961C268.576 159.002 266.282 159.23 265.447 158.33C265.53 157.882 265.427 158.075 265.818 157.762Z" fill="#6E6E73"/>
<path d="M171.032 97.1425C171.423 97.1653 171.54 97.1446 171.889 97.3392C172.54 98.382 172.054 100.595 171.862 101.836C171.599 101.787 171.219 101.698 171.122 101.443C170.705 100.347 170.705 98.2439 171.032 97.1425Z" fill="#6E6E73"/>
<path d="M188.971 96.8271C190.507 97.3866 190.177 99.9801 189.637 101.131L189.027 100.98C188.485 100.164 188.463 97.6448 188.971 96.8271Z" fill="#6E6E73"/>
<path d="M66.6852 157.729C67.724 157.635 69.0513 157.373 69.9341 157.86C70.2105 158.412 70.1299 158.206 70.0365 158.972C68.5242 159.355 67.0771 159.552 66.6852 157.729Z" fill="#6E6E73"/>
<path d="M253.87 157.57C254.809 157.613 255.5 157.485 256.101 158.28L256.008 158.629C255.577 159.017 255.348 159.007 254.776 159.116C254.017 159.119 252.59 159.02 252.658 157.993C253.152 157.586 253.159 157.693 253.87 157.57Z" fill="#6E6E73"/>
<path d="M272.593 157.712C273.525 157.643 274.84 157.422 275.587 157.934C275.816 158.48 275.792 158.233 275.553 158.932C274.678 159.174 273.811 159.41 272.984 158.918C272.561 158.353 272.683 158.489 272.593 157.712Z" fill="#6E6E73"/>
<path d="M86.2894 157.752C87.1248 157.681 88.6124 157.489 89.1103 158.236C89.0481 158.681 88.9114 158.758 88.5873 159.107C87.6073 159.211 86.4526 159.325 85.8207 158.388C85.9206 157.93 85.8417 158.095 86.2894 157.752Z" fill="#6E6E73"/>
<path d="M171.216 90.84C172.719 91.4216 172.319 92.9735 172.008 94.1693C171.542 94.1497 171.551 94.1547 171.115 93.9992C170.414 93.0606 170.75 91.8137 171.216 90.84Z" fill="#6E6E73"/>
<path d="M171.317 103.562C172.628 104.166 172.16 106.206 171.804 107.35C170.376 106.409 170.736 104.975 171.317 103.562Z" fill="#6E6E73"/>
<path d="M171.297 114.023C172.65 114.862 172.277 116.648 171.768 117.878C170.561 117.136 170.971 115.171 171.297 114.023Z" fill="#6E6E73"/>
<path d="M140.139 98.4704C141.797 98.7349 141.828 99.6987 140.983 100.909L140.218 100.818C139.338 100.063 139.64 99.3962 140.139 98.4704Z" fill="#6E6E73"/>
<path d="M208.803 98.4487C209.532 98.6627 210.01 98.8361 210.212 99.623C210.205 100.242 210.073 100.365 209.709 100.857L208.892 100.782C207.947 100.047 208.324 99.387 208.803 98.4487Z" fill="#6E6E73"/>
<path d="M208.664 103.731C210.232 104.113 209.873 105.351 209.516 106.514C209.268 106.499 209.04 106.453 208.795 106.414C207.897 105.674 208.287 104.64 208.664 103.731Z" fill="#6E6E73"/>
<path d="M139.83 104.098C141.416 104.28 141.35 105.025 141.221 106.366C140.458 106.395 140.345 106.422 139.849 105.869C139.644 105.279 139.759 104.718 139.83 104.098Z" fill="#6E6E73"/>
<path d="M171.664 108.564C172.58 109.387 172.152 111.012 171.447 111.877C170.655 111.126 170.817 109.349 171.664 108.564Z" fill="#6E6E73"/>
<path d="M188.849 103.882C189.378 104.008 189.666 104.23 189.922 104.698C190.031 105.374 189.864 105.679 189.631 106.31L189.376 106.362C188.296 105.963 188.65 104.803 188.849 103.882Z" fill="#6E6E73"/>
<path d="M188.85 123.679C188.847 122.871 188.754 121.923 189.133 121.236L189.345 121.076C190.102 121.685 189.725 122.928 190.084 123.704L188.85 123.679Z" fill="#6E6E73"/>
<path d="M188.847 114.307C188.999 114.345 189.224 114.445 189.376 114.505C189.857 115.416 189.642 116.056 189.46 117.057C188.24 116.701 188.591 115.213 188.847 114.307Z" fill="#6E6E73"/>
<path d="M188.713 109.039C189.31 109.063 189.456 109.022 189.839 109.475C189.952 110.05 189.765 110.48 189.601 111.055C189.065 111.04 189.269 111.111 188.814 110.827C188.526 110.258 188.657 109.701 188.713 109.039Z" fill="#6E6E73"/>
</svg>
