<svg width="16" height="16" viewBox="0 0 16 16" fill="none" xmlns="http://www.w3.org/2000/svg">
<path fill-rule="evenodd" clip-rule="evenodd" d="M4.21934 6.22015C4.35997 6.0797 4.55059 6.00081 4.74934 6.00081C4.94809 6.00081 5.13871 6.0797 5.27934 6.22015L7.99934 8.94015L10.7193 6.22015C10.788 6.14647 10.8708 6.08736 10.9628 6.04637C11.0548 6.00538 11.1541 5.98334 11.2548 5.98156C11.3555 5.97979 11.4555 5.99831 11.5489 6.03603C11.6423 6.07375 11.7272 6.1299 11.7984 6.20112C11.8696 6.27233 11.9257 6.35717 11.9635 6.45056C12.0012 6.54394 12.0197 6.64397 12.0179 6.74468C12.0162 6.84538 11.9941 6.94469 11.9531 7.03669C11.9121 7.12869 11.853 7.21149 11.7793 7.28015L8.52934 10.5302C8.38871 10.6706 8.19809 10.7495 7.99934 10.7495C7.80059 10.7495 7.60997 10.6706 7.46934 10.5302L4.21934 7.28015C4.07889 7.13953 4 6.9489 4 6.75015C4 6.5514 4.07889 6.36078 4.21934 6.22015Z" fill="#A4A4B2"/>
</svg>
