<svg width="20" height="20" viewBox="0 0 20 20" fill="none" xmlns="http://www.w3.org/2000/svg">
<path d="M17.7672 5.94986L17.3559 5.23602C17.0448 4.69617 16.8893 4.42624 16.6246 4.3186C16.3599 4.21097 16.0606 4.2959 15.462 4.46577L14.4452 4.75218C14.063 4.84032 13.662 4.79032 13.3131 4.61102L13.0324 4.44905C12.7331 4.25739 12.5029 3.97481 12.3755 3.64265L12.0973 2.8115C11.9143 2.26148 11.8228 1.98647 11.6049 1.82917C11.3872 1.67187 11.0979 1.67188 10.5192 1.67188H9.59019C9.0116 1.67188 8.72227 1.67187 8.50444 1.82917C8.28664 1.98647 8.19515 2.26148 8.01218 2.8115L7.73388 3.64265C7.60648 3.97481 7.37631 4.25739 7.07708 4.44905L6.79634 4.61102C6.44739 4.79032 6.04643 4.84032 5.66425 4.75218L4.64739 4.46577C4.04878 4.2959 3.74948 4.21097 3.48483 4.3186C3.22018 4.42624 3.06464 4.69617 2.75356 5.23602L2.34224 5.94986C2.05065 6.4559 1.90485 6.70892 1.93315 6.97827C1.96144 7.24762 2.15663 7.46468 2.54699 7.8988L3.40619 8.85937C3.61619 9.1252 3.76528 9.58853 3.76528 10.0051C3.76528 10.4219 3.61624 10.885 3.40621 11.1509L2.54699 12.1115C2.15663 12.5457 1.96145 12.7627 1.93315 13.0321C1.90485 13.3014 2.05065 13.5544 2.34224 14.0604L2.75355 14.7743C3.06463 15.3141 3.22018 15.5841 3.48483 15.6917C3.74948 15.7994 4.04879 15.7144 4.64741 15.5445L5.66422 15.2581C6.04646 15.1699 6.44749 15.22 6.79649 15.3994L7.07719 15.5614C7.37636 15.753 7.60647 16.0355 7.73385 16.3677L8.01218 17.1989C8.19515 17.7489 8.28664 18.0239 8.50444 18.1813C8.72227 18.3385 9.0116 18.3385 9.59019 18.3385H10.5192C11.0979 18.3385 11.3872 18.3385 11.6049 18.1813C11.8228 18.0239 11.9143 17.7489 12.0973 17.1989L12.3756 16.3677C12.5029 16.0355 12.733 15.753 13.0323 15.5614L13.3129 15.3994C13.6619 15.22 14.0629 15.1699 14.4452 15.2581L15.462 15.5445C16.0606 15.7144 16.3599 15.7994 16.6246 15.6917C16.8893 15.5841 17.0448 15.3141 17.3559 14.7743L17.7672 14.0604C18.0588 13.5544 18.2045 13.3014 18.1763 13.0321C18.1479 12.7627 17.9528 12.5457 17.5624 12.1115L16.7032 11.1509C16.4932 10.885 16.3441 10.4219 16.3441 10.0051C16.3441 9.58853 16.4933 9.1252 16.7032 8.85937L17.5624 7.8988C17.9528 7.46468 18.1479 7.24762 18.1763 6.97827C18.2045 6.70892 18.0588 6.4559 17.7672 5.94986Z" stroke="white" stroke-width="1.25" stroke-linecap="round"/>
<path d="M12.9349 9.9987C12.9349 11.6095 11.629 12.9154 10.0182 12.9154C8.40737 12.9154 7.10156 11.6095 7.10156 9.9987C7.10156 8.38786 8.40737 7.08203 10.0182 7.08203C11.629 7.08203 12.9349 8.38786 12.9349 9.9987Z" stroke="white" stroke-width="1.25"/>
</svg>
