<svg width="16" height="16" viewBox="0 0 16 16" fill="none" xmlns="http://www.w3.org/2000/svg">
<path d="M5.33594 1.33398V12.0007" stroke="white" stroke-linecap="round" stroke-linejoin="round"/>
<path d="M13.3307 14.6673H3.9974C3.26102 14.6673 2.66406 14.0704 2.66406 13.334M2.66406 13.334C2.66406 12.5976 3.26102 12.0007 3.9974 12.0007H13.3307V4.00065C13.3307 2.74357 13.3307 2.11503 12.9402 1.72451C12.5497 1.33398 11.9211 1.33398 10.6641 1.33398H6.66406C4.77844 1.33398 3.83564 1.33398 3.24985 1.91977C2.66406 2.50556 2.66406 3.44836 2.66406 5.33398V13.334Z" stroke="white" stroke-linecap="round" stroke-linejoin="round"/>
<path d="M13.0026 12C13.0026 12 12.3359 12.5085 12.3359 13.3333C12.3359 14.1581 13.0026 14.6667 13.0026 14.6667" stroke="white" stroke-linecap="round" stroke-linejoin="round"/>
</svg>
