<svg width="24" height="24" viewBox="0 0 24 24" fill="none" xmlns="http://www.w3.org/2000/svg">
<path d="M12.0555 6.05753C18.2116 6.05753 19.7597 10.0978 18.5146 11.9556C18.9891 12.7441 18.9759 14.3707 18.4756 15.1135C19.7065 16.9765 18.152 21 12.0087 21V17.9918C13.6019 18.0411 17.1119 17.5191 18.4164 15.0388C18.1388 14.511 17.636 13.8625 17.0857 13.5041C17.6266 13.0566 18.1059 12.5179 18.4247 11.9474C17.0911 9.52843 13.6335 9.01687 12.0556 9.06566V11.926C13.2227 11.9425 15.8627 12.2811 17.0857 13.5041C16.0683 14.6184 13.1087 14.9708 12.1073 14.9829V17.9425C6.02223 17.9425 4.43929 13.9948 5.6061 12.1094C5.11801 11.3207 5.13177 9.6569 5.64751 8.91781C5.96548 9.51452 6.46226 10.0792 7.02545 10.5452C6.49374 10.8915 6.00609 11.5087 5.72341 12.0261C7.03208 14.4417 10.4492 14.9718 12.0556 14.9355V12.0247C11.1087 12.0247 8.06108 11.6794 7.02545 10.5452C8.24845 9.32223 10.8883 8.98357 12.0555 8.96712V6.05753Z" fill="white"/>
<path d="M12.1541 6.00822C10.5596 5.95891 7.04506 6.48167 5.74316 8.96712C4.41168 7.14246 5.92075 3.00002 12.1541 3V6.00822Z" fill="white"/>
</svg>
