<svg width="393" height="149" viewBox="0 0 393 149" fill="none" xmlns="http://www.w3.org/2000/svg">
<g clip-path="url(#clip0_449_1119)">
<path d="M63.2094 70.5084L42.3184 74.2518C41.4447 71.5482 40.0571 68.9746 38.1556 66.531C36.3055 64.0874 33.7872 62.0857 30.6009 60.5259C27.4146 58.9662 23.4316 58.1863 18.6521 58.1863C12.1253 58.1863 6.6777 59.6681 2.30934 62.6316C-2.05902 65.5432 -4.2432 69.3126 -4.2432 73.9399C-4.2432 77.9433 -2.77852 81.1668 0.150855 83.6104C3.08023 86.054 7.80833 88.0557 14.3352 89.6155L33.1448 93.9828C44.04 96.5304 52.16 100.456 57.5049 105.759C62.8497 111.062 65.5221 117.951 65.5221 126.426C65.5221 133.601 63.4664 139.996 59.355 145.611C55.295 151.174 49.6161 155.541 42.3184 158.713C35.072 161.884 26.6694 163.47 17.1104 163.47C3.85111 163.47 -6.967 160.611 -15.344 154.891C-23.7209 149.12 -28.8602 140.932 -30.7617 130.325L-8.48308 126.894C-7.09548 132.769 -4.2432 137.214 0.0737677 140.23C4.39074 143.193 10.0182 144.675 16.9562 144.675C24.5109 144.675 30.5495 143.089 35.072 139.918C39.5946 136.694 41.8558 132.769 41.8558 128.142C41.8558 124.398 40.4683 121.253 37.6931 118.705C34.9693 116.157 30.7808 114.234 25.1276 112.934L5.08453 108.489C-5.96485 105.941 -14.1363 101.886 -19.4297 96.3225C-24.6717 90.7593 -27.2927 83.7144 -27.2927 75.1877C-27.2927 68.1168 -25.3398 61.9297 -21.434 56.6265C-17.5282 51.3233 -12.1319 47.19 -5.24535 44.2264C1.64124 41.2109 9.52998 39.7031 18.4209 39.7031C31.2176 39.7031 41.2905 42.5107 48.6397 48.1258C55.9888 53.689 60.8454 61.1498 63.2094 70.5084Z" fill="white"/>
<path d="M96.7515 205.974C93.3082 205.974 90.1733 205.688 87.3467 205.116C84.5201 204.596 82.413 204.024 81.0254 203.4L86.5758 184.293C90.79 185.437 94.5416 185.931 97.8307 185.775C101.12 185.619 104.024 184.371 106.542 182.031C109.111 179.692 111.373 175.87 113.326 170.567L116.178 162.612L72.854 41.2629H97.5224L127.51 134.225H128.743L158.731 41.2629H183.476L134.679 177.04C132.418 183.279 129.54 188.556 126.045 192.872C122.551 197.239 118.388 200.515 113.557 202.698C108.726 204.882 103.124 205.974 96.7515 205.974Z" fill="white"/>
<path d="M219.504 89.9274V161.053H196.455V41.2629H218.579V60.7599H220.044C222.768 54.4169 227.033 49.3216 232.841 45.4742C238.7 41.6268 246.074 39.7031 254.965 39.7031C263.034 39.7031 270.1 41.4189 276.165 44.8503C282.229 48.2298 286.931 53.273 290.272 59.98C293.612 66.687 295.283 74.9797 295.283 84.8582V161.053H272.233V87.6658C272.233 78.9831 269.998 72.1982 265.526 67.3109C261.055 62.3717 254.914 59.902 247.102 59.902C241.757 59.902 237.004 61.0719 232.841 63.4115C228.729 65.7511 225.466 69.1826 223.051 73.7059C220.687 78.1772 219.504 83.5844 219.504 89.9274Z" fill="white"/>
<path d="M367.388 163.47C355.928 163.47 346.061 160.845 337.786 155.593C329.564 150.29 323.242 142.985 318.822 133.679C314.403 124.372 312.193 113.714 312.193 101.704C312.193 89.5375 314.454 78.8011 318.977 69.4946C323.499 60.136 329.872 52.8311 338.095 47.5799C346.317 42.3287 356.005 39.7031 367.157 39.7031C376.151 39.7031 384.168 41.3929 391.209 44.7723C398.25 48.0998 403.928 52.7791 408.245 58.8102C412.614 64.8413 415.209 71.8862 416.031 79.945H393.599C392.365 74.3298 389.539 69.4946 385.119 65.4392C380.75 61.3838 374.892 59.3561 367.543 59.3561C361.118 59.3561 355.491 61.0719 350.66 64.5033C345.881 67.8828 342.155 72.7181 339.482 79.0091C336.81 85.2482 335.474 92.631 335.474 101.158C335.474 109.892 336.784 117.431 339.405 123.774C342.026 130.117 345.726 135.031 350.506 138.514C355.337 141.997 361.016 143.739 367.543 143.739C371.911 143.739 375.868 142.933 379.414 141.322C383.012 139.658 386.018 137.292 388.434 134.225C390.9 131.157 392.622 127.466 393.599 123.15H416.031C415.209 130.897 412.717 137.812 408.554 143.895C404.391 149.978 398.815 154.762 391.826 158.245C384.888 161.728 376.742 163.47 367.388 163.47Z" fill="white"/>
</g>
<defs>
<clipPath id="clip0_449_1119">
<rect width="393" height="149" fill="white"/>
</clipPath>
</defs>
</svg>
