<svg width="1440" height="209" viewBox="0 0 1440 209" fill="none" xmlns="http://www.w3.org/2000/svg">
<g clip-path="url(#clip0_449_1101)">
<path d="M132.761 116.516L98.2411 122.701C96.7974 118.234 94.5046 113.981 91.3625 109.943C88.3054 105.906 84.1443 102.598 78.8793 100.021C73.6142 97.4433 67.0329 96.1547 59.1353 96.1547C48.3504 96.1547 39.3488 98.6031 32.1306 103.5C24.9124 108.311 21.3033 114.54 21.3033 122.186C21.3033 128.801 23.7235 134.127 28.564 138.165C33.4044 142.203 41.2171 145.511 52.002 148.088L83.0828 155.304C101.086 159.514 114.503 166 123.335 174.763C132.167 183.526 136.583 194.909 136.583 208.913C136.583 220.769 133.186 231.336 126.392 240.614C119.683 249.807 110.3 257.023 98.2411 262.264C86.2673 267.504 72.3828 270.125 56.5877 270.125C34.6782 270.125 16.8025 265.399 2.96048 255.949C-10.8815 246.413 -19.3736 232.882 -22.5156 215.356L14.2973 209.686C16.5902 219.394 21.3033 226.739 28.4366 231.722C35.5699 236.619 44.8687 239.068 56.3329 239.068C68.8162 239.068 78.7943 236.447 86.2673 231.207C93.7403 225.88 97.4768 219.394 97.4768 211.748C97.4768 205.562 95.184 200.365 90.5983 196.155C86.0975 191.946 79.1765 188.767 69.8352 186.619L36.7163 179.274C18.4584 175.064 4.9561 168.363 -3.79069 159.17C-12.4526 149.978 -16.7835 138.337 -16.7835 124.248C-16.7835 112.564 -13.5565 102.34 -7.10258 93.5773C-0.64864 84.8144 8.268 77.9845 19.6473 73.0875C31.0266 68.1047 44.0619 65.6133 58.7531 65.6133C79.8983 65.6133 96.5427 70.2525 108.686 79.5309C120.83 88.7233 128.855 101.052 132.761 116.516Z" fill="white"/>
<path d="M188.186 340.357C182.496 340.357 177.316 339.884 172.645 338.939C167.975 338.08 164.493 337.135 162.2 336.104L171.371 304.532C178.335 306.422 184.534 307.238 189.969 306.98C195.404 306.723 200.202 304.661 204.363 300.795C208.609 296.929 212.346 290.614 215.573 281.851L220.286 268.707L148.698 68.1906H189.46L239.011 221.8H241.049L290.6 68.1906H331.489L250.857 292.547C247.12 302.857 242.365 311.577 236.59 318.707C230.816 325.924 223.937 331.336 215.955 334.944C207.972 338.553 198.716 340.357 188.186 340.357Z" fill="white"/>
<path d="M391.021 148.603V266.13H352.935V68.1906H389.493V100.407H391.913C396.414 89.9261 403.462 81.5068 413.058 75.1494C422.739 68.792 434.925 65.6133 449.616 65.6133C462.949 65.6133 474.625 68.4483 484.646 74.1185C494.667 79.7027 502.437 88.0361 507.957 99.1186C513.476 110.201 516.236 123.904 516.236 140.227V266.13H478.15V144.866C478.15 130.519 474.456 119.308 467.068 111.232C459.679 103.07 449.531 98.9897 436.624 98.9897C427.792 98.9897 419.937 100.923 413.058 104.789C406.265 108.655 400.872 114.325 396.881 121.799C392.975 129.187 391.021 138.122 391.021 148.603Z" fill="white"/>
<path d="M635.383 270.125C616.446 270.125 600.141 265.786 586.469 257.109C572.882 248.346 562.436 236.276 555.133 220.898C547.83 205.519 544.179 187.908 544.179 168.062C544.179 147.959 547.915 130.218 555.388 114.84C562.861 99.3763 573.391 87.3058 586.978 78.6288C600.566 69.9518 616.573 65.6133 635.001 65.6133C649.862 65.6133 663.109 68.4054 674.744 73.9896C686.378 79.4879 695.761 87.2199 702.895 97.1856C710.113 107.151 714.401 118.792 715.76 132.108H678.692C676.654 122.83 671.984 114.84 664.68 108.139C657.462 101.438 647.781 98.0877 635.638 98.0877C625.023 98.0877 615.724 100.923 607.741 106.593C599.844 112.177 593.687 120.167 589.271 130.562C584.855 140.871 582.647 153.071 582.647 167.16C582.647 181.593 584.813 194.05 589.144 204.531C593.475 215.013 599.589 223.131 607.487 228.887C615.469 234.643 624.853 237.521 635.638 237.521C642.856 237.521 649.395 236.19 655.254 233.526C661.199 230.777 666.167 226.868 670.158 221.8C674.234 216.731 677.079 210.631 678.692 203.501H715.76C714.401 216.301 710.283 227.727 703.404 237.779C696.526 247.831 687.312 255.734 675.763 261.491C664.298 267.247 650.838 270.125 635.383 270.125Z" fill="white"/>
<path d="M767.236 268.578C760.272 268.578 754.285 266.087 749.275 261.104C744.265 256.035 741.76 249.935 741.76 242.805C741.76 235.76 744.265 229.746 749.275 224.764C754.285 219.695 760.272 217.16 767.236 217.16C774.199 217.16 780.186 219.695 785.196 224.764C790.207 229.746 792.712 235.76 792.712 242.805C792.712 247.53 791.523 251.868 789.145 255.82C786.852 259.686 783.795 262.779 779.974 265.099C776.152 267.418 771.906 268.578 767.236 268.578Z" fill="white"/>
<path d="M874.017 2.1875V266.106H851.344V2.1875H874.017Z" fill="white" fill-opacity="0.4"/>
<path d="M974.312 270.617C962.508 270.617 951.723 268.297 941.957 263.658C932.191 258.933 924.421 252.146 918.647 243.297C912.872 234.362 909.985 223.537 909.985 210.823C909.985 201.029 911.81 192.781 915.462 186.08C919.114 179.379 924.294 173.881 931.002 169.585C937.711 165.29 945.651 161.896 954.823 159.405C963.994 156.913 974.099 154.98 985.139 153.606C996.094 152.231 1005.35 151.028 1012.91 149.997C1020.55 148.967 1026.37 147.334 1030.36 145.101C1034.35 142.867 1036.35 139.259 1036.35 134.276V129.637C1036.35 116.149 1032.35 105.539 1024.37 97.8065C1016.47 89.9886 1005.1 86.0797 990.234 86.0797C976.138 86.0797 964.631 89.2154 955.714 95.4869C946.883 101.758 940.683 109.147 937.117 117.652L915.589 109.791C920.005 98.9663 926.119 90.3323 933.932 83.8889C941.745 77.3597 950.492 72.6775 960.173 69.8425C969.853 66.9215 979.662 65.461 989.597 65.461C997.07 65.461 1004.84 66.449 1012.91 68.4249C1021.06 70.4009 1028.62 73.8373 1035.58 78.7343C1042.55 83.5453 1048.19 90.2893 1052.52 98.9663C1056.85 107.557 1059.02 118.468 1059.02 131.698V266.106H1036.35V234.792H1034.94C1032.23 240.634 1028.19 246.304 1022.84 251.802C1017.49 257.3 1010.79 261.811 1002.72 265.333C994.65 268.855 985.182 270.617 974.312 270.617ZM977.369 249.611C989.428 249.611 999.873 246.905 1008.7 241.493C1017.54 236.08 1024.33 228.907 1029.09 219.972C1033.93 210.951 1036.35 201.029 1036.35 190.204V161.595C1034.65 163.228 1031.8 164.688 1027.81 165.977C1023.91 167.266 1019.36 168.425 1014.18 169.456C1009.09 170.401 1003.99 171.218 998.896 171.905C993.801 172.592 989.215 173.193 985.139 173.709C974.099 175.084 964.673 177.231 956.861 180.152C949.048 183.073 943.061 187.111 938.9 192.266C934.739 197.334 932.658 203.864 932.658 211.853C932.658 223.881 936.904 233.202 945.396 239.818C953.888 246.347 964.546 249.611 977.369 249.611Z" fill="white" fill-opacity="0.4"/>
<path d="M1109.7 266.106V2.1875H1132.5V105.925H1134.54C1137.09 99.9973 1140.74 93.8976 1145.49 87.6261C1150.33 81.3546 1156.66 76.114 1164.47 71.9043C1172.37 67.6088 1182.31 65.461 1194.28 65.461C1210.33 65.461 1224.43 69.7566 1236.57 78.3477C1248.71 86.8529 1258.18 98.7945 1264.98 114.173C1271.77 129.465 1275.17 147.291 1275.17 167.652C1275.17 188.099 1271.77 206.012 1264.98 221.39C1258.27 236.768 1248.84 248.752 1236.7 257.343C1224.64 265.934 1210.63 270.23 1194.66 270.23C1182.77 270.23 1172.84 268.082 1164.86 263.787C1156.96 259.491 1150.59 254.208 1145.75 247.936C1140.91 241.579 1137.17 235.393 1134.54 229.379H1131.74V266.106H1109.7ZM1132.12 167.266C1132.12 183.245 1134.45 197.42 1139.12 209.792C1143.88 222.077 1150.67 231.742 1159.51 238.787C1168.42 245.745 1179.21 249.225 1191.86 249.225C1204.85 249.225 1215.85 245.617 1224.85 238.4C1233.85 231.098 1240.69 221.261 1245.36 208.89C1250.03 196.518 1252.37 182.644 1252.37 167.266C1252.37 152.059 1250.03 138.357 1245.36 126.157C1240.77 113.958 1233.98 104.293 1224.98 97.1622C1215.98 89.9457 1204.94 86.3374 1191.86 86.3374C1179.12 86.3374 1168.29 89.8168 1159.38 96.7756C1150.55 103.648 1143.79 113.185 1139.12 125.384C1134.45 137.497 1132.12 151.458 1132.12 167.266Z" fill="white" fill-opacity="0.4"/>
<path d="M1442.08 111.595L1421.32 117.523C1419.28 111.595 1416.39 106.226 1412.66 101.415C1408.92 96.6038 1404.04 92.7807 1398.01 89.9457C1392.06 87.1106 1384.67 85.6931 1375.84 85.6931C1362.6 85.6931 1351.73 88.8718 1343.23 95.2292C1334.74 101.587 1330.5 109.791 1330.5 119.843C1330.5 128.348 1333.38 135.264 1339.16 140.59C1345.02 145.831 1354.02 149.997 1366.16 153.09L1395.71 160.436C1412.1 164.474 1424.38 170.874 1432.53 179.637C1440.76 188.4 1444.88 199.396 1444.88 212.627C1444.88 223.795 1441.83 233.718 1435.71 242.395C1429.6 251.072 1421.06 257.902 1410.11 262.885C1399.24 267.782 1386.63 270.23 1372.28 270.23C1353.17 270.23 1337.42 265.892 1325.02 257.215C1312.62 248.452 1304.68 235.823 1301.2 219.328L1322.98 213.915C1325.78 225.685 1331.26 234.577 1339.41 240.591C1347.65 246.604 1358.48 249.611 1371.89 249.611C1386.93 249.611 1398.94 246.218 1407.94 239.431C1416.94 232.558 1421.45 223.967 1421.45 213.658C1421.45 205.668 1418.81 198.967 1413.55 193.554C1408.28 188.056 1400.3 184.018 1389.6 181.441L1357.63 173.709C1340.64 169.585 1328.08 163.056 1319.92 154.121C1311.77 145.186 1307.69 134.104 1307.69 120.874C1307.69 109.963 1310.62 100.384 1316.48 92.1364C1322.34 83.803 1330.41 77.2738 1340.69 72.5487C1350.96 67.8236 1362.68 65.461 1375.84 65.461C1393.76 65.461 1408.07 69.5847 1418.77 77.8322C1429.56 85.9937 1437.33 97.2481 1442.08 111.595Z" fill="white" fill-opacity="0.4"/>
</g>
<defs>
<clipPath id="clip0_449_1101">
<rect width="1440" height="208.74" fill="white"/>
</clipPath>
</defs>
</svg>
