<svg width="339" height="265" viewBox="0 0 339 265" fill="none" xmlns="http://www.w3.org/2000/svg">
<path fill-rule="evenodd" clip-rule="evenodd" d="M127.317 21.9983C135.545 21.9914 141.606 22.0836 149.165 26.1204C159.655 31.7234 165.522 43.3237 159.569 54.4759C161.251 56.9929 162.519 59.9767 163.56 62.7864C165.53 68.1063 166.807 73.71 168.312 79.1477C168.539 79.964 168.82 80.8175 169.114 81.6946C169.408 82.5701 169.716 83.4704 169.993 84.3733C170.547 86.1777 170.986 88.0163 170.952 89.7454C170.9 92.406 169.948 94.972 169.253 97.4768C168.553 99.9974 168.103 102.478 168.979 105.054C169.544 106.718 170.718 108.715 172.166 110.868C173.613 113.019 175.322 115.309 176.955 117.564C178.586 119.815 180.14 122.031 181.265 124.022C182.383 126.002 183.1 127.8 183.008 129.204C182.766 132.875 179.991 135.051 176.819 136.172C176.512 136.281 176.172 136.386 175.826 136.493C175.479 136.602 175.123 136.715 174.777 136.842C174.082 137.098 173.448 137.407 173.009 137.837C172.785 138.057 172.668 138.35 172.607 138.688C172.546 139.029 172.544 139.39 172.529 139.745C172.473 141.087 172.483 142.43 172.807 143.715C172.953 144.295 173.245 144.932 173.509 145.616C173.765 146.282 173.991 146.989 173.949 147.649C173.885 148.661 173.149 149.641 172.312 150.489C171.527 151.284 170.596 152.016 169.955 152.573C170.614 153.607 171.288 154.668 171.756 155.831C172.279 157.133 172.405 158.16 172.255 159.028C172.104 159.895 171.682 160.58 171.154 161.2C170.891 161.51 170.599 161.807 170.302 162.103C170.003 162.4 169.698 162.695 169.399 163.009C168.804 163.636 168.244 164.329 167.85 165.207C167.469 166.055 167.37 167.114 167.408 168.339C167.447 169.565 167.62 170.926 167.767 172.377C168.058 175.263 168.238 178.477 166.947 181.425C165.706 184.259 163.822 186.041 161.552 187.106C159.287 188.168 156.648 188.513 153.9 188.496C151.152 188.48 148.279 188.102 145.54 187.709C142.795 187.316 140.191 186.908 137.959 186.824C135.043 186.713 131.807 187.1 129.101 188.191C127.156 188.976 125.473 190.208 124.217 191.887C123.577 192.741 122.823 194.143 122.028 195.849C121.235 197.551 120.407 199.545 119.62 201.572C118.046 205.626 116.639 209.808 116 212.059C115.338 214.379 114.848 216.746 114.535 219.137C114.364 220.451 114.251 223.156 114.103 225.734C114.029 227.018 113.946 228.269 113.843 229.29C113.791 229.801 113.733 230.258 113.669 230.633C113.605 231.004 113.533 231.311 113.445 231.516L113.407 231.604L113.315 231.629L113.055 231.702L112.916 231.741L112.835 231.621C112.617 231.299 112.493 230.796 112.421 230.234C112.348 229.663 112.325 228.998 112.326 228.33C112.33 226.999 112.435 225.613 112.46 224.908C112.772 216.115 115.477 207.893 118.929 199.91C120.323 196.685 121.444 193.173 123.818 190.392C127.431 186.123 131.552 185.929 136.438 185.512C135.166 184.901 134.201 184.585 133.227 184.324C132.238 184.06 131.218 183.846 129.862 183.436L129.259 183.247C127.965 182.825 126.693 182.321 125.428 181.82C124.161 181.317 122.901 180.818 121.623 180.399C118.369 179.334 113.17 177.428 108.482 174.923C106.139 173.671 103.917 172.265 102.13 170.738C100.345 169.212 98.9775 167.55 98.3652 165.782L98.2764 165.526L98.5469 165.516C98.6315 165.513 98.7108 165.547 98.7666 165.576C98.8292 165.609 98.8974 165.655 98.9678 165.707C99.109 165.813 99.2792 165.963 99.4668 166.139C99.8431 166.493 100.307 166.972 100.78 167.47C101.256 167.97 101.742 168.488 102.168 168.929C102.597 169.372 102.952 169.724 103.169 169.893C104.831 171.187 105.922 171.973 107.598 172.887L108.355 173.289L108.361 173.292L109.041 173.667C116.083 177.488 123.707 179.506 131.18 182.151C138.01 184.568 142.212 186.001 149.573 186.828C153.905 187.314 158.188 187.112 161.372 185.5C162.96 184.697 164.273 183.542 165.188 181.947C166.104 180.349 166.628 178.296 166.614 175.686C166.605 173.971 166.252 172.276 166.014 170.553C165.777 168.842 165.659 167.117 166.149 165.406C166.528 164.04 167.695 163.03 168.759 162.07C169.846 161.088 170.826 160.157 171.036 158.926C171.083 158.542 171.015 158.046 170.857 157.486C170.7 156.928 170.46 156.322 170.179 155.723C169.639 154.573 168.954 153.469 168.442 152.814C168.003 152.847 167.286 152.927 166.426 153.023C165.496 153.126 164.404 153.247 163.333 153.341C162.263 153.435 161.208 153.503 160.352 153.5C159.924 153.499 159.54 153.479 159.227 153.436C158.922 153.393 158.651 153.324 158.477 153.201L158.396 153.145L158.392 153.045L158.382 152.783L158.378 152.665L158.479 152.605C158.64 152.508 158.906 152.431 159.221 152.366C159.544 152.298 159.945 152.238 160.398 152.183C161.306 152.073 162.435 151.983 163.584 151.908C165.85 151.762 168.17 151.676 169.103 151.609C170.715 150.515 171.64 149.39 172.681 147.768C172.572 147.327 172.474 147.028 172.333 146.656L172.165 146.223C171.636 144.882 171.337 143.46 171.282 142.02L171.271 141.515C171.269 140.989 171.289 140.407 171.299 139.833C171.312 139.084 171.309 138.344 171.229 137.723C171.069 137.533 170.931 137.371 170.819 137.239L170.771 137.18L170.772 137.104C170.776 136.975 170.846 136.871 170.922 136.795C170.999 136.718 171.102 136.647 171.218 136.583C171.449 136.455 171.772 136.327 172.148 136.197C172.901 135.936 173.926 135.647 174.98 135.322C176.042 134.994 177.144 134.624 178.08 134.193C179.023 133.758 179.766 133.275 180.14 132.737C181.655 130.551 181.759 128.722 181.199 126.981C180.63 125.212 179.38 123.533 178.138 121.643C176.211 118.711 174.02 116.042 172.016 113.215C170.02 110.401 168.233 107.46 167.168 104.046L167.164 104.034C166.589 101.716 167.275 99.1732 168.024 96.5481C168.779 93.9064 169.606 91.161 169.407 88.3548L169.324 87.8479C169.101 86.6319 168.681 85.1853 168.226 83.7288C167.707 82.0722 167.142 80.3999 166.785 79.0735C166.044 76.318 164.71 71.1699 163.094 66.261C162.286 63.8067 161.408 61.4156 160.501 59.4163C159.608 57.4492 158.695 55.8839 157.805 55.0022C156.91 54.9464 155.962 54.9748 155.06 54.9593C148.995 54.8552 142.462 56.1307 136.563 57.4954L136.562 57.4944C133.668 58.2089 130.369 58.9875 127.734 60.4817C125.111 61.9697 123.167 64.1564 122.949 67.6966C122.868 69.0194 122.859 70.2937 122.839 71.5403C122.819 72.7847 122.79 74.0022 122.666 75.1995C122.418 77.5991 121.795 79.9257 120.124 82.2776C118.332 84.8003 115.434 86.4257 112.77 88.1282C110.085 89.8437 107.629 91.641 106.573 94.5081C106.121 95.7366 105.908 97.1673 105.784 98.6985C105.66 100.237 105.627 101.841 105.527 103.452C105.329 106.643 104.87 109.801 102.847 111.95L102.84 111.957C101.845 112.922 100.829 113.132 99.624 113.135C97.0233 113.14 95.2182 112.858 93.8955 112.325C92.5652 111.79 91.7338 111.007 91.0732 110.038C90.4222 109.084 89.927 107.931 89.2871 106.688C88.6426 105.435 87.8355 104.054 86.541 102.591C83.6713 99.7885 80.4113 97.8956 76.3779 97.8216C72.3413 97.7474 69.3228 99.4406 66.4023 102.194C63.526 104.905 62.7018 108.72 62.7822 112.589C62.8258 114.681 62.8477 116.736 63.3135 118.766L63.4121 119.172L63.4131 119.173C64.7036 124.229 68.2064 130.76 71.8516 134.481C73.4895 136.153 75.6906 138.086 78.0967 139.49C80.5065 140.896 83.0956 141.756 85.5215 141.326C86.0523 141.232 86.6803 140.863 87.2949 140.49C87.5944 140.307 87.8901 140.125 88.1543 139.989C88.4113 139.856 88.6738 139.749 88.9004 139.747L89.0625 139.746L89.0967 139.905C89.1889 140.329 89.0244 140.723 88.751 141.056C88.4781 141.388 88.0806 141.685 87.6523 141.933C86.7976 142.428 85.7602 142.767 85.1816 142.826C81.1546 143.236 77.358 141.043 74.4824 138.518C73.6414 137.779 72.8282 136.94 72.0146 136.132C71.2138 135.337 70.4086 134.57 69.5586 133.934C69.1583 135.365 68.7766 137.7 68.4395 140.086C68.1712 141.985 67.9283 143.918 67.7246 145.423L67.5342 146.77C65.8987 157.739 64.0464 169.049 58.9971 179.089C58.7984 179.484 58.4741 180.208 58.0674 181.086C57.6622 181.961 57.1782 182.983 56.665 183.962C56.1527 184.939 55.6074 185.881 55.0791 186.593C54.8151 186.949 54.5505 187.254 54.292 187.478C54.0368 187.699 53.7667 187.858 53.4932 187.889L53.25 187.917L53.2715 187.673C53.3007 187.342 53.4874 186.876 53.7383 186.365C53.9936 185.845 54.3312 185.248 54.6865 184.646C55.4027 183.432 56.185 182.204 56.5605 181.468L56.9502 180.69C58.8789 176.79 60.4757 172.734 61.7227 168.564L61.7236 168.563C64.1269 160.691 65.1281 152.827 66.5732 144.705C66.9662 142.497 67.1095 140.699 67.3564 138.853C67.5997 137.034 67.9416 135.191 68.7197 132.925C68.1907 132.023 67.5615 131.124 66.9326 130.222C66.2876 129.297 65.6427 128.367 65.123 127.44C62.9868 123.628 61.3615 118.537 61.1973 113.586C61.0332 108.636 62.331 103.794 66.0781 100.529C67.427 99.353 69.1818 98.2277 71.0576 97.4388C72.932 96.6504 74.9416 96.1922 76.7949 96.3665C81.9938 96.8552 86.9419 99.7678 89.5195 104.365L89.7617 104.815C90.7115 106.681 91.4344 108.419 92.6875 110.04C92.9929 110.435 93.6651 110.789 94.5693 111.059C95.4624 111.326 96.5427 111.5 97.6182 111.562C98.694 111.624 99.7552 111.575 100.61 111.4C101.038 111.312 101.409 111.194 101.701 111.048C101.995 110.901 102.198 110.732 102.311 110.548C103.577 108.481 103.87 105.683 104.031 102.774C104.191 99.8881 104.221 96.8882 105.003 94.51L105.006 94.5013C106.091 91.6557 108.26 89.7334 110.664 88.0608C111.864 87.2259 113.138 86.4441 114.362 85.6458C115.591 84.8447 116.78 84.0221 117.835 83.093C121.138 80.183 121.225 76.1688 121.261 72.1243C121.296 68.1162 121.278 64.0566 124.565 61.3177C127.723 58.6873 132.176 57.0691 136.799 55.9553C141.423 54.8412 146.248 54.2251 150.151 53.6145C151.223 53.4469 152.776 53.4358 154.32 53.4739C155.807 53.5107 157.317 53.5928 158.39 53.6311C163.048 45.8433 159.671 35.8478 152.981 30.3274C147.75 26.0102 142.007 24.3347 135.989 23.7278C129.957 23.1195 123.684 23.5856 117.352 23.5374C117.111 23.5355 116.771 23.552 116.375 23.5706C115.982 23.589 115.54 23.6091 115.105 23.6136C114.672 23.618 114.24 23.6064 113.868 23.5608C113.505 23.5163 113.165 23.435 112.941 23.2776L112.873 23.2298L112.859 23.1468L112.715 22.2532L112.678 22.0218L112.912 22.0208L127.317 21.9983ZM114.151 221.298C113.928 224.806 113.756 230.277 113.26 231.437L113.115 231.477L113.262 231.437C113.758 230.277 113.928 224.807 114.151 221.298ZM125.03 190.634C124.683 190.986 124.356 191.364 124.055 191.767C121.444 195.254 117.088 207.487 115.806 212.004C115.14 214.334 114.649 216.711 114.335 219.112C114.282 219.513 114.237 220.044 114.193 220.659C114.219 220.297 114.246 219.965 114.274 219.67L114.337 219.112C114.651 216.711 115.142 214.334 115.808 212.004C117.089 207.488 121.446 195.254 124.057 191.767C124.358 191.364 124.683 190.986 125.03 190.634ZM128.657 188.16C128.597 188.187 128.537 188.216 128.477 188.243C128.537 188.216 128.598 188.187 128.659 188.16L129.024 188.006L128.657 188.16ZM60.1318 176.193C59.7187 177.138 59.2815 178.074 58.8164 178.999C58.0725 180.479 55.5882 186.51 53.8613 187.542C55.5882 186.513 58.0742 180.478 58.8184 178.998C59.2832 178.074 59.719 177.137 60.1318 176.193ZM149.55 187.028C151.074 187.199 152.596 187.283 154.07 187.252C152.859 187.277 151.616 187.226 150.365 187.111L149.552 187.028C149.346 187.005 149.144 186.978 148.943 186.954C149.143 186.978 149.345 187.005 149.55 187.028ZM142.138 185.785C141.207 185.569 140.301 185.332 139.396 185.075C139.991 185.244 140.586 185.406 141.189 185.557L142.138 185.785ZM167.032 180.661C166.95 180.891 166.862 181.119 166.763 181.345C165.925 183.259 164.79 184.682 163.441 185.724C164.668 184.777 165.718 183.516 166.528 181.856L166.765 181.345C166.864 181.119 166.95 180.89 167.032 180.661ZM137.423 184.486C136.186 184.098 134.919 183.671 133.564 183.2L131.112 182.339C127.412 181.03 123.664 179.87 119.962 178.566C123.663 179.869 127.411 181.03 131.11 182.339C133.442 183.164 135.47 183.874 137.423 184.486ZM107.068 172.821C107.436 173.029 107.828 173.243 108.262 173.467C110.646 174.808 113.102 175.929 115.597 176.931C113.339 176.025 111.114 175.02 108.945 173.843L108.264 173.467C107.83 173.243 107.436 173.029 107.068 172.821ZM105.324 171.737C104.809 171.386 104.297 171.01 103.729 170.577L103.047 170.05C102.155 169.356 99.2289 165.925 98.6074 165.725L98.5547 165.716C99.0445 165.711 102.126 169.336 103.045 170.051C103.902 170.719 104.61 171.25 105.324 171.737ZM172.143 150.372C171.313 151.208 170.342 151.957 169.692 152.534C170.383 153.619 171.087 154.709 171.568 155.907C173.624 161.021 169.296 161.493 167.665 165.125C167.605 165.26 167.553 165.4 167.506 165.543C167.534 165.459 167.563 165.376 167.596 165.294L167.667 165.125C169.298 161.493 173.626 161.02 171.57 155.906C171.089 154.708 170.384 153.619 169.694 152.534C170.344 151.957 171.313 151.207 172.143 150.372ZM69.4424 133.601C68.5714 136.424 67.807 143.617 67.335 146.741C66.8274 150.145 66.2985 153.578 65.6611 156.994C66.1701 154.266 66.6115 151.528 67.0264 148.801L67.3369 146.741C67.8088 143.618 68.5726 136.427 69.4434 133.602L69.4424 133.601ZM169.17 151.805C167.44 151.936 160.088 152.141 158.695 152.719C160.093 152.141 167.442 151.937 169.169 151.806L169.17 151.805ZM168.149 152.637C168.131 152.639 168.113 152.64 168.095 152.642C168.265 152.626 168.412 152.614 168.533 152.607L168.149 152.637ZM172.847 144.488C173.232 145.514 173.81 146.651 173.748 147.636C173.715 148.16 173.483 148.684 173.139 149.193C173.445 148.74 173.664 148.277 173.731 147.811L173.75 147.636C173.812 146.65 173.232 145.515 172.847 144.488ZM172.449 142.954C172.492 143.226 172.543 143.496 172.61 143.764C172.662 143.967 172.733 144.177 172.812 144.394C172.762 144.257 172.716 144.122 172.676 143.99L172.612 143.764C172.545 143.496 172.492 143.226 172.449 142.954ZM85.1592 142.628C85.0173 142.643 84.8757 142.652 84.7344 142.66C84.7535 142.659 84.7728 142.66 84.792 142.658L85.1611 142.628C85.1827 142.626 85.2046 142.621 85.2275 142.617C85.204 142.621 85.1812 142.626 85.1592 142.628ZM62.7246 116.177C62.8102 117.196 62.9541 118.213 63.2168 119.223C64.5151 124.31 68.0339 130.873 71.7061 134.621C74.8772 137.858 80.1662 142.086 85.0107 141.597C80.1668 142.084 74.8788 137.857 71.708 134.62C68.036 130.872 64.517 124.308 63.2188 119.222C62.9562 118.212 62.8102 117.196 62.7246 116.177ZM173.209 137.408C173.087 137.498 172.971 137.592 172.866 137.695C172.336 138.215 172.356 139.047 172.327 139.737C172.303 140.313 172.294 140.894 172.313 141.472C172.299 141.062 172.301 140.652 172.312 140.242L172.329 139.737C172.358 139.047 172.338 138.215 172.868 137.695C172.972 137.592 173.087 137.498 173.209 137.408ZM88.8994 139.948C88.9974 140.397 88.7453 140.828 88.3242 141.208C88.7459 140.828 88.9992 140.397 88.9014 139.948H88.8994ZM168.298 102.294C168.319 103.225 168.463 104.166 168.787 105.119C171.087 111.883 183.158 123.83 182.807 129.192C182.617 132.071 180.821 134.015 178.478 135.239C180.822 134.015 182.619 132.071 182.809 129.192C183.161 123.83 171.089 111.883 168.789 105.118C168.465 104.165 168.319 103.225 168.298 102.294ZM62.7002 109.781C62.596 110.707 62.5604 111.65 62.5801 112.594C62.5998 113.541 62.6181 114.485 62.6729 115.427C62.6503 115.039 62.6333 114.65 62.6211 114.26L62.582 112.594C62.5624 111.65 62.5961 110.707 62.7002 109.781ZM99.6221 112.935L99.624 112.936C99.7637 112.936 99.9003 112.931 100.034 112.924C99.8997 112.931 99.7624 112.935 99.6221 112.935ZM104.133 109.603C103.775 110.418 103.311 111.164 102.699 111.814C102.582 111.927 102.464 112.03 102.347 112.122C102.406 112.076 102.465 112.028 102.523 111.977L102.701 111.814C103.312 111.165 103.775 110.418 104.133 109.603ZM84.2393 99.1243C86.4714 100.549 88.3483 102.51 89.582 104.907C90.5233 106.756 91.2592 108.521 92.5273 110.162C93.124 110.934 94.8466 111.469 96.7031 111.683C94.8474 111.469 93.1259 110.934 92.5293 110.162C91.2611 108.521 90.5252 106.756 89.584 104.907C88.35 102.51 86.472 100.549 84.2393 99.1243ZM63.9834 105.154C64.4865 104.127 65.1467 103.17 65.9961 102.311L66.2656 102.048C67.9207 100.488 69.6147 99.2588 71.5107 98.4954C69.614 99.2588 67.9192 100.488 66.2637 102.048C65.2833 102.972 64.5384 104.022 63.9834 105.154ZM108.056 91.6487C107.352 92.4664 106.774 93.38 106.384 94.4397C105.902 95.7494 105.691 97.2743 105.569 98.887C105.677 97.4674 105.854 96.1159 106.224 94.9192L106.386 94.4397C106.776 93.3806 107.353 92.4661 108.056 91.6487ZM76.7764 96.5657C76.334 96.5241 75.8818 96.5191 75.4238 96.5471C75.8811 96.5192 76.3327 96.5242 76.7744 96.5657C79.2522 96.7986 81.6706 97.5886 83.7959 98.8518C81.8132 97.6735 79.5764 96.9059 77.2734 96.6194L76.7764 96.5657ZM170.667 88.2239C170.728 88.7377 170.76 89.2445 170.75 89.7415C170.697 92.4381 169.712 95.0284 169.005 97.6233C169.669 95.1861 170.58 92.7535 170.732 90.2327L170.752 89.7415C170.762 89.2446 170.728 88.7376 170.667 88.2239ZM166.824 74.3694C167.251 75.9848 167.674 77.599 168.118 79.2014C168.883 81.9638 170.266 85.1293 170.649 88.0823C170.294 85.3491 169.086 82.4336 168.301 79.8245L168.12 79.2014C167.676 77.599 167.251 75.9849 166.824 74.3694ZM122.532 74.3948C122.342 77.0532 121.785 79.592 119.959 82.1624C119.892 82.2573 119.822 82.3502 119.751 82.4427C119.764 82.4254 119.779 82.4092 119.792 82.3919L119.961 82.1624C121.787 79.5922 122.342 77.0531 122.532 74.3948ZM122.591 73.3294C122.652 71.8291 122.639 70.2855 122.701 68.6721L122.75 67.6848C123.016 63.3548 125.815 61.0018 129.256 59.5052C125.814 61.0018 123.014 63.3539 122.748 67.6848C122.627 69.6596 122.664 71.5259 122.591 73.3294ZM145.012 24.4407C146.328 24.9401 147.673 25.5515 149.069 26.2971C159.527 31.8828 165.315 43.4304 159.336 54.4886C161.037 57.0059 162.317 60.014 163.37 62.8567C164.311 65.3963 165.091 67.9995 165.816 70.6204C165.186 68.3419 164.516 66.0762 163.732 63.8548L163.372 62.8557C162.319 60.0133 161.039 57.0057 159.338 54.4886C165.224 43.6031 159.707 32.243 149.558 26.5628L149.071 26.2962C147.674 25.5502 146.329 24.9402 145.012 24.4407ZM131.42 58.6878C130.923 58.8515 130.432 59.0288 129.949 59.219C130.433 59.0284 130.925 58.8508 131.423 58.6868L131.42 58.6878ZM142.639 56.0042C140.553 56.3943 138.498 56.8427 136.517 57.3011C135.637 57.5182 134.716 57.7446 133.785 57.9934C134.717 57.7444 135.638 57.5184 136.519 57.3011C138.499 56.8429 140.553 56.3943 142.639 56.0042ZM151.049 53.7161C150.735 53.7397 150.444 53.7709 150.183 53.8118C144.56 54.6913 137.076 55.5767 130.993 57.9368C137.076 55.5774 144.558 54.6922 150.181 53.8128C150.443 53.7718 150.734 53.7397 151.049 53.7161ZM156.536 53.7542C157.27 53.7862 157.946 53.8186 158.5 53.8372L156.58 53.7561C156.565 53.7555 156.551 53.7548 156.536 53.7542ZM128.885 22.1995C128.868 22.1994 128.852 22.1995 128.835 22.1995L127.317 22.1985L112.913 22.221L127.315 22.1995C127.847 22.199 128.37 22.1981 128.885 22.1995Z" fill="#6E6E73"/>
<path fill-rule="evenodd" clip-rule="evenodd" d="M250.021 193.541C250.129 193.541 250.437 193.542 250.722 193.577C250.862 193.595 251.01 193.621 251.128 193.666C251.187 193.689 251.252 193.721 251.305 193.768C251.346 193.805 251.387 193.857 251.405 193.924L251.416 193.997L251.459 195.693C251.478 196.287 251.5 196.908 251.522 197.547C251.567 198.824 251.611 200.171 251.632 201.514C251.673 204.198 251.619 206.881 251.267 208.975L251.257 209.032L251.219 209.074C251.127 209.178 251.033 209.281 250.938 209.382L250.651 209.683C250.397 209.943 250.01 210.144 249.547 210.302C249.081 210.462 248.518 210.585 247.892 210.68C246.639 210.87 245.11 210.949 243.55 210.973C241.988 210.997 240.387 210.964 238.986 210.926C237.583 210.888 236.387 210.846 235.624 210.851H235.616L234.862 210.825L234.784 210.824L234.729 210.769C234.642 210.684 234.588 210.637 234.543 210.595C234.504 210.559 234.45 210.507 234.42 210.431C234.393 210.362 234.394 210.288 234.393 210.238C234.391 210.176 234.391 210.093 234.381 209.965L234.375 209.882L234.429 209.82C234.523 209.711 234.665 209.636 234.818 209.581C234.976 209.525 235.169 209.481 235.388 209.447C235.825 209.377 236.391 209.341 237.039 209.324C238.337 209.292 239.997 209.341 241.682 209.387C243.37 209.433 245.086 209.475 246.509 209.43C247.22 209.407 247.853 209.362 248.37 209.286C248.86 209.214 249.224 209.115 249.451 208.994C249.552 208.816 249.648 208.512 249.727 208.085C249.81 207.633 249.873 207.067 249.919 206.419C250.011 205.125 250.034 203.52 250.022 201.875C250.011 200.231 249.965 198.549 249.92 197.104C249.875 195.661 249.83 194.447 249.821 193.743L249.819 193.541H250.021ZM250.021 193.741C250.239 193.742 251.208 193.749 251.214 194.001C251.288 198.272 251.766 204.793 251.067 208.942C250.885 209.147 250.697 209.347 250.506 209.543C250.422 209.629 250.321 209.709 250.202 209.783C250.321 209.709 250.424 209.629 250.508 209.543C250.603 209.445 250.698 209.346 250.792 209.245L251.069 208.942C251.768 204.793 251.29 198.272 251.216 194.001C251.212 193.812 250.663 193.76 250.298 193.746L250.021 193.741Z" fill="#6E6E73"/>
<path fill-rule="evenodd" clip-rule="evenodd" d="M230.179 113.85C230.572 113.853 230.77 113.844 231.076 113.902L231.431 113.985L231.506 114.005L231.548 114.071C231.572 114.109 231.587 114.154 231.597 114.189C231.607 114.227 231.617 114.271 231.625 114.319C231.641 114.415 231.656 114.539 231.669 114.687C231.695 114.983 231.718 115.388 231.736 115.885C231.773 116.88 231.795 118.256 231.806 119.891C231.828 123.161 231.807 127.476 231.775 131.872C231.713 140.675 231.607 149.794 231.716 151.579C231.75 152.135 231.77 155.013 231.751 157.908C231.742 159.357 231.722 160.816 231.69 161.994C231.659 163.163 231.616 164.078 231.553 164.426L231.524 164.581L231.367 164.59C231.141 164.603 230.948 164.625 230.767 164.617C230.572 164.61 230.385 164.569 230.141 164.469L230.077 164.444L230.043 164.384C230.026 164.345 230.017 164.298 230.017 164.292C230.017 164.291 230.017 164.289 230.017 164.287C230.017 164.285 230.016 164.282 230.016 164.279C230.016 164.272 230.016 164.263 230.016 164.252C230.015 164.229 230.015 164.194 230.015 164.149C230.014 164.058 230.012 163.923 230.011 163.747C230.007 163.397 230.003 162.882 229.997 162.227C229.986 160.916 229.97 159.041 229.953 156.784C229.919 152.271 229.877 146.227 229.849 140.106C229.82 133.984 229.804 127.783 229.819 122.956C229.827 120.543 229.842 118.472 229.867 116.926C229.893 115.39 229.928 114.35 229.979 114.019L230.006 113.848L230.179 113.85ZM231.578 117.66C231.725 126.398 231.336 148.677 231.515 151.592C231.582 152.685 231.592 163.075 231.354 164.391C231.13 164.404 230.967 164.42 230.811 164.417C230.883 164.419 230.957 164.417 231.037 164.412L231.355 164.391C231.594 163.075 231.584 152.684 231.517 151.591C231.338 148.675 231.725 126.398 231.578 117.66ZM230.177 114.05C230.701 114.055 230.854 114.038 231.377 114.178C231.463 114.315 231.519 115.206 231.556 116.63C231.523 115.351 231.476 114.501 231.404 114.242L231.379 114.178C230.855 114.038 230.702 114.055 230.177 114.05Z" fill="#6E6E73"/>
<path fill-rule="evenodd" clip-rule="evenodd" d="M264.598 113.969C264.783 113.997 264.917 114.022 265.048 114.051L265.483 114.157L265.556 114.174L265.599 114.235C265.629 114.277 265.646 114.327 265.657 114.365C265.67 114.407 265.681 114.457 265.691 114.512C265.711 114.622 265.73 114.767 265.747 114.94C265.782 115.288 265.814 115.768 265.843 116.361C265.9 117.547 265.945 119.194 265.98 121.154C266.051 125.073 266.08 130.251 266.079 135.508C266.077 146.014 265.951 156.866 265.782 158.635L265.767 158.798L265.604 158.815C265.244 158.852 265.002 158.827 264.672 158.814L264.588 158.811L264.531 158.747L264.193 158.37L264.182 158.322C264.169 158.27 264.162 158.178 264.155 158.074C264.148 157.962 264.142 157.812 264.136 157.629C264.124 157.262 264.113 156.753 264.104 156.125C264.085 154.868 264.073 153.126 264.065 151.063C264.051 146.936 264.056 141.52 264.078 136.114C264.1 130.707 264.138 125.308 264.188 121.217C264.212 119.172 264.24 117.452 264.271 116.221C264.286 115.606 264.301 115.111 264.317 114.759C264.326 114.583 264.334 114.441 264.343 114.336C264.347 114.284 264.352 114.239 264.356 114.203C264.36 114.174 264.367 114.131 264.381 114.095L264.438 113.945L264.598 113.969ZM265.599 115.624C266.049 122.581 265.885 155.44 265.581 158.616C265.411 158.634 265.27 158.636 265.13 158.633C265.271 158.636 265.412 158.634 265.583 158.616C265.887 155.44 266.049 122.582 265.599 115.624ZM264.566 114.166C264.926 114.222 265.08 114.264 265.434 114.351C265.47 114.403 265.504 114.58 265.536 114.868C265.513 114.659 265.491 114.508 265.466 114.421L265.436 114.351C265.082 114.264 264.927 114.222 264.566 114.166Z" fill="#6E6E73"/>
<path fill-rule="evenodd" clip-rule="evenodd" d="M223.651 127.26C223.819 127.271 223.964 127.312 224.142 127.406L224.331 127.518L224.41 127.568L224.422 127.66C224.503 128.283 224.509 129.979 224.491 131.685C224.474 133.399 224.432 135.15 224.418 135.895C224.368 138.497 224.424 141.296 224.452 144.091C224.48 146.883 224.481 149.672 224.317 152.245L224.307 152.413L224.139 152.431C223.88 152.458 223.73 152.478 223.578 152.475C223.423 152.472 223.268 152.446 222.992 152.396L222.896 152.378L222.852 152.293C222.823 152.24 222.808 152.167 222.798 152.109C222.786 152.041 222.775 151.956 222.766 151.857C222.746 151.657 222.727 151.388 222.712 151.061C222.681 150.405 222.657 149.506 222.639 148.44C222.602 146.307 222.59 143.5 222.592 140.628C222.594 134.886 222.652 128.877 222.689 127.464L222.695 127.266L222.893 127.269C223.068 127.272 223.207 127.267 223.325 127.262C223.441 127.257 223.549 127.253 223.651 127.26ZM224.2 138.842C224.216 143.285 224.381 148.047 224.115 152.233C224.095 152.235 224.075 152.237 224.057 152.239C224.076 152.236 224.096 152.235 224.117 152.233C224.383 148.047 224.216 143.285 224.2 138.842ZM223.495 127.456C223.745 127.452 223.902 127.482 224.222 127.686C224.379 128.894 224.245 134.401 224.217 135.892C224.2 136.768 224.197 137.666 224.199 138.578C224.198 138.005 224.199 137.437 224.204 136.877L224.219 135.891C224.247 134.399 224.381 128.895 224.224 127.686C223.904 127.481 223.746 127.452 223.495 127.456Z" fill="#6E6E73"/>
<path fill-rule="evenodd" clip-rule="evenodd" d="M236.814 128.594C237.03 128.616 237.216 128.623 237.379 128.665C237.559 128.712 237.715 128.798 237.912 128.96L237.974 129.011L237.983 129.089C238.155 130.43 238.299 135.667 238.324 140.779C238.337 143.338 238.32 145.873 238.261 147.882C238.231 148.886 238.192 149.762 238.14 150.444C238.088 151.115 238.024 151.624 237.938 151.879L237.876 152.061L237.692 152.007L237.217 151.869L237.141 151.847L237.101 151.78C237.033 151.666 236.985 151.486 236.946 151.279C236.906 151.063 236.87 150.789 236.838 150.468C236.774 149.824 236.725 148.974 236.688 147.987C236.615 146.01 236.587 143.464 236.58 140.869C236.566 135.673 236.637 130.283 236.595 128.799L236.588 128.571L236.814 128.594ZM236.795 128.793C237.264 128.841 237.418 128.815 237.783 129.116C238.123 131.768 238.36 149.996 237.746 151.815L237.748 151.816C238.362 150.002 238.125 131.767 237.785 129.115C237.511 128.889 237.355 128.847 237.097 128.821L236.795 128.793Z" fill="#6E6E73"/>
<path fill-rule="evenodd" clip-rule="evenodd" d="M271.682 122.937C271.869 122.968 272.012 122.984 272.132 122.997C272.248 123.01 272.355 123.021 272.453 123.044C272.615 123.082 272.747 123.149 272.911 123.275L273.088 123.421L273.144 123.469L273.154 123.542C273.268 124.33 273.35 126.205 273.401 128.599C273.453 130.999 273.475 133.934 273.466 136.852C273.457 139.769 273.417 142.671 273.346 145.002C273.31 146.167 273.267 147.192 273.215 148.004C273.163 148.812 273.102 149.424 273.031 149.757L272.999 149.908L272.846 149.915C272.732 149.921 272.646 149.929 272.557 149.935C272.471 149.94 272.387 149.943 272.303 149.937C272.124 149.923 271.964 149.864 271.754 149.737L271.693 149.7L271.67 149.634C271.626 149.512 271.591 149.313 271.562 149.067C271.532 148.814 271.505 148.491 271.481 148.111C271.434 147.348 271.396 146.343 271.368 145.175C271.312 142.839 271.292 139.841 271.293 136.807C271.296 130.742 271.385 124.518 271.449 123.125L271.459 122.9L271.682 122.937ZM273.102 125.547C273.384 131.631 273.306 147.504 272.834 149.715H272.836C273.308 147.505 273.384 131.632 273.102 125.547ZM271.647 123.134C272.418 123.263 272.462 123.141 272.954 123.572C273.005 123.923 273.049 124.499 273.088 125.248C273.06 124.705 273.031 124.252 272.997 123.91L272.956 123.572C272.464 123.141 272.419 123.263 271.647 123.134Z" fill="#6E6E73"/>
<path fill-rule="evenodd" clip-rule="evenodd" d="M257.53 124.94L258.431 125.085L258.479 125.157C258.515 125.21 258.538 125.278 258.554 125.337C258.571 125.402 258.587 125.481 258.601 125.571C258.629 125.75 258.653 125.987 258.676 126.269C258.721 126.834 258.756 127.599 258.783 128.496C258.837 130.293 258.857 132.636 258.854 135.007C258.85 137.379 258.824 139.783 258.783 141.705C258.743 143.62 258.688 145.072 258.627 145.531L258.6 145.738L258.394 145.701L257.567 145.555L257.494 145.541L257.447 145.484C257.42 145.45 257.405 145.412 257.397 145.391C257.389 145.366 257.381 145.338 257.375 145.311C257.362 145.255 257.351 145.185 257.34 145.104C257.318 144.94 257.297 144.716 257.276 144.443C257.235 143.895 257.197 143.135 257.161 142.234C257.09 140.431 257.033 138.052 257.006 135.642C256.978 133.232 256.979 130.786 257.023 128.852C257.045 127.885 257.079 127.043 257.124 126.396C257.147 126.073 257.172 125.795 257.202 125.574C257.231 125.359 257.266 125.18 257.312 125.064L257.371 124.913L257.53 124.94ZM257.497 125.137L258.312 125.269C258.828 126.031 258.664 143.719 258.427 145.503L258.429 145.504C258.666 143.728 258.83 126.035 258.313 125.269L257.497 125.137Z" fill="#6E6E73"/>
<path fill-rule="evenodd" clip-rule="evenodd" d="M279.372 129.283C279.594 129.335 279.722 129.367 279.844 129.421C279.902 129.447 279.96 129.479 280.026 129.519L280.263 129.665L280.326 129.704L280.349 129.776C280.408 129.967 280.456 130.305 280.496 130.733C280.537 131.167 280.57 131.711 280.598 132.327C280.652 133.561 280.681 135.089 280.679 136.609C280.677 138.128 280.646 139.643 280.581 140.849C280.549 141.451 280.508 141.98 280.458 142.394C280.433 142.6 280.406 142.781 280.376 142.93C280.347 143.075 280.311 143.204 280.268 143.296L280.204 143.43L280.058 143.408C279.839 143.376 279.637 143.358 279.461 143.311C279.268 143.259 279.094 143.17 278.89 142.999L278.837 142.954L278.822 142.886C278.741 142.495 278.703 141.555 278.693 140.368C278.683 139.171 278.702 137.695 278.739 136.216C278.777 134.737 278.835 133.252 278.902 132.035C278.97 130.825 279.048 129.863 279.13 129.44L279.17 129.236L279.372 129.283ZM280.354 131.552C280.569 135.037 280.512 142.301 280.085 143.209L280.087 143.21C280.515 142.307 280.568 135.039 280.354 131.552ZM279.325 129.478C279.776 129.583 279.758 129.59 280.156 129.835C280.201 129.98 280.241 130.236 280.277 130.577C280.252 130.335 280.226 130.136 280.196 129.989L280.158 129.835C279.76 129.59 279.776 129.584 279.325 129.478Z" fill="#6E6E73"/>
<path fill-rule="evenodd" clip-rule="evenodd" d="M286.415 134.584C286.886 134.682 287.218 134.907 287.436 135.222C287.649 135.531 287.741 135.909 287.77 136.299C287.798 136.69 287.766 137.109 287.718 137.51C287.694 137.711 287.665 137.911 287.639 138.101C287.612 138.292 287.587 138.474 287.567 138.644L287.543 138.854L287.335 138.819C287.145 138.786 287.013 138.771 286.911 138.758C286.814 138.746 286.727 138.736 286.646 138.71C286.558 138.682 286.485 138.639 286.404 138.578C286.328 138.521 286.234 138.439 286.105 138.328L286.067 138.296L286.05 138.249C285.558 136.987 285.932 135.996 286.178 134.741L286.217 134.543L286.415 134.584ZM286.373 134.781C288.077 135.136 287.524 137.235 287.366 138.62L287.368 138.621C287.526 137.235 288.078 135.136 286.373 134.781Z" fill="#6E6E73"/>
<path fill-rule="evenodd" clip-rule="evenodd" d="M73.2139 102.946C75.5818 102.645 77.7163 103.046 79.4746 104.113C81.2328 105.18 82.5997 106.903 83.4492 109.22C83.5854 109.591 83.7211 110.055 83.8066 110.524C83.8916 110.99 83.9301 111.477 83.8623 111.89L83.8457 111.992L83.752 112.037L83.5342 112.143L83.4336 112.191L83.3398 112.131C82.9882 111.908 82.7589 111.476 82.5869 111.055C82.4987 110.839 82.421 110.613 82.3486 110.401C82.2755 110.186 82.2081 109.986 82.1396 109.814C81.4926 108.184 80.8819 107.214 79.6934 105.929C78.1145 104.509 76.2869 103.856 74.5625 103.998C72.8383 104.141 71.1932 105.08 69.9805 106.893C69.7371 107.257 69.5225 107.62 69.2969 107.989C69.0726 108.355 68.8392 108.725 68.5635 109.088L68.4678 109.213L68.0762 109.041L67.9863 109.001L67.9629 108.907C67.8048 108.269 67.9567 107.621 68.2793 107.011C68.6016 106.402 69.1021 105.816 69.6689 105.285C70.8021 104.226 72.2348 103.359 73.1602 102.96L73.1865 102.949L73.2139 102.946ZM83.6631 111.858L83.4463 111.961L83.4473 111.962L83.665 111.858C83.669 111.834 83.6697 111.809 83.6729 111.784C83.6697 111.809 83.667 111.834 83.6631 111.858ZM83.2617 109.289C81.5988 104.753 77.9443 102.578 73.3232 103.134C77.9434 102.579 81.5971 104.754 83.2598 109.289C83.5029 109.952 83.7422 110.914 83.6855 111.657C83.7345 111.016 83.5649 110.211 83.3604 109.576L83.2617 109.289ZM68.4014 108.966L68.4033 108.967C68.4343 108.926 68.4622 108.883 68.4922 108.842C68.4621 108.883 68.4325 108.925 68.4014 108.966ZM73.0742 104.12C71.8414 104.563 70.7086 105.442 69.8125 106.782C69.4543 107.317 69.1553 107.853 68.8125 108.378C69.0378 108.033 69.2459 107.685 69.4619 107.334L69.8145 106.782C70.71 105.443 71.8422 104.564 73.0742 104.12Z" fill="#6E6E73"/>
<path fill-rule="evenodd" clip-rule="evenodd" d="M154.807 102.213C154.981 102.251 155.093 102.273 155.195 102.32C155.246 102.342 155.294 102.371 155.348 102.407L155.532 102.537L155.594 102.581L155.61 102.656C155.751 103.265 155.837 104.757 155.793 106.19C155.771 106.91 155.716 107.625 155.617 108.216C155.568 108.511 155.506 108.78 155.431 109.005C155.356 109.226 155.261 109.424 155.137 109.56L155.034 109.672L154.898 109.603L154.646 109.473L154.598 109.449L154.568 109.402C154.307 108.985 154.19 108.534 154.13 108.08C154.078 107.689 154.066 107.276 154.047 106.883C151.991 106.643 149.578 106.707 147.481 106.716L147.482 106.717C146.972 106.73 146.28 106.775 145.617 106.764C144.957 106.753 144.279 106.688 143.787 106.462L143.709 106.426L143.545 105.939L143.603 105.856L143.806 105.565L143.859 105.488L143.953 105.48C145.391 105.359 147.217 105.389 149.067 105.44C150.851 105.488 152.658 105.555 154.186 105.532C154.263 104.335 154.344 103.599 154.567 102.372L154.604 102.169L154.807 102.213ZM154.763 102.408C155.131 102.488 155.107 102.481 155.413 102.7C155.682 103.865 155.759 108.578 154.989 109.423L154.99 109.424C155.713 108.635 155.691 104.44 155.464 102.958L155.415 102.7C155.108 102.48 155.131 102.488 154.763 102.408ZM150.001 106.502C149.135 106.502 148.28 106.514 147.476 106.518C147.454 106.518 147.432 106.519 147.41 106.52C147.433 106.519 147.455 106.518 147.478 106.518C148.281 106.514 149.136 106.502 150.001 106.502Z" fill="#6E6E73"/>
<path fill-rule="evenodd" clip-rule="evenodd" d="M246.031 59.0911C246.965 59.0708 247.904 59.0778 248.816 59.1897C249.093 59.2237 249.428 59.2774 249.746 59.3782C250.023 59.4659 250.301 59.5936 250.522 59.7864L250.614 59.8733L250.695 59.969C250.879 60.2107 251.018 60.5753 251.13 61.0061C251.26 61.5075 251.36 62.1338 251.437 62.8411C251.59 64.2568 251.654 66.0219 251.67 67.8186C251.702 71.4069 251.545 75.1672 251.533 76.5374L251.531 76.7356H250.8C250.612 76.7264 250.411 76.6974 250.222 76.6106C250.132 76.5696 250.093 76.4849 250.078 76.4485C250.058 76.3998 250.042 76.3418 250.03 76.2825C250.006 76.1622 249.986 76.0002 249.972 75.8079C249.942 75.4204 249.927 74.8808 249.921 74.2405C249.908 72.9582 249.931 71.249 249.948 69.4925C249.966 67.7342 249.978 65.9259 249.943 64.4378C249.926 63.6939 249.897 63.0322 249.853 62.4983C249.809 61.985 249.75 61.607 249.681 61.387C249.442 61.1117 249.23 60.9345 248.906 60.8831C246.883 60.5622 244.421 60.5933 241.956 60.6614C239.501 60.7292 237.039 60.8331 235.049 60.6497L235 60.6458L234.958 60.6184C234.711 60.4576 234.586 60.322 234.505 60.1194C234.469 60.0299 234.443 59.9286 234.414 59.8225C234.384 59.7131 234.35 59.5846 234.296 59.4251L234.213 59.18L234.472 59.1624C234.606 59.1533 234.748 59.1415 234.89 59.136L235.934 59.1057C238.374 59.0568 240.846 59.1554 243.264 59.1585C244.169 59.1596 245.092 59.1115 246.031 59.0911ZM248.792 59.388C246.996 59.1676 245.079 59.36 243.264 59.3577C240.508 59.3542 237.711 59.2288 234.958 59.3343C237.71 59.2289 240.507 59.3552 243.262 59.3587C245.077 59.361 246.994 59.1686 248.79 59.3889C249.335 59.4558 250.068 59.5954 250.468 60.012C251.961 61.5734 251.354 73.7664 251.331 76.5354H251.333C251.356 73.7671 251.962 61.5749 250.47 60.012C250.07 59.5954 249.337 59.4548 248.792 59.388Z" fill="#6E6E73"/>
</svg>
