<svg width="339" height="265" viewBox="0 0 339 265" fill="none" xmlns="http://www.w3.org/2000/svg">
<path d="M236.277 160.623C236.979 159.724 238.481 158.581 239.459 157.93C244.538 154.547 248.955 153.584 254.98 154.409C256.109 154.564 256.698 154.958 257.633 155.153L257.851 154.854C258.215 155.498 257.663 156.146 257.888 156.98C250.574 154.125 242.257 156.062 236.957 161.855C237.269 160.148 239.367 159.745 240.51 158.514C240.577 158.02 240.614 158.25 240.4 157.798C239.529 157.905 237.612 160.179 236.277 160.623Z" fill="#6E6E73"/>
<path fill-rule="evenodd" clip-rule="evenodd" d="M167.473 96.2988C169.235 96.0999 172.03 96.1555 173.684 96.6221C191.788 101.73 189.279 130.852 171.392 133.94C159.762 135.152 152.484 125.103 152.847 114.223C152.977 110.317 153.597 106.347 156.092 103.179C159.059 99.4119 162.675 96.9466 167.473 96.2988ZM178.009 100.54C175.503 98.6938 171.272 97.6151 168.134 97.961C156.965 99.6308 153.522 108.551 155.073 118.723C156.367 127.199 162.109 132.96 170.942 132.244C174.967 131.539 178.084 130.124 180.609 126.512C185.828 119.046 185.832 106.305 178.009 100.54Z" fill="#6E6E73"/>
<path d="M178.889 134.262C179.049 134.259 179.21 134.264 179.37 134.275C186.04 134.741 194.288 141.235 196.751 147.38C198.18 150.948 198.418 155.654 198.128 159.487L197.05 159.5C196.749 159.325 196.599 159.263 196.601 158.859C196.629 148.65 193.767 141.151 183.493 137.236C182.268 136.769 180.249 136.294 179.079 135.683C178.752 135.096 178.87 134.996 178.889 134.262Z" fill="#6E6E73"/>
<path d="M158.757 134.321C159.018 134.295 159.126 134.33 159.391 134.362C159.487 134.498 159.553 134.578 159.616 134.741C159.708 134.978 159.68 135.271 159.579 135.49C159.324 136.045 154.468 137.571 153.53 138.014C151.478 138.984 149.712 140.197 148.058 141.757C143.996 145.588 142.574 150.749 142.346 156.171C142.304 157.147 142.439 158.889 141.935 159.67C141.298 159.682 141.203 159.7 140.6 159.54C140.548 159.433 140.478 159.306 140.47 159.19C140.168 154.255 140.869 148.697 143.716 144.6C147.265 139.492 152.727 135.586 158.757 134.321Z" fill="#6E6E73"/>
<path d="M98.1832 88.478C99.746 88.4201 105.851 88.1688 106.78 88.9019C106.952 89.4053 106.93 89.4284 106.754 89.9548C106.026 90.6691 102.336 90.3842 101.117 90.3689C98.6655 90.3405 96.2136 90.3477 93.7623 90.3904C93.652 92.5988 93.6608 94.9011 93.6401 97.1197C93.6458 98.5281 93.9921 102.991 93.2727 103.935C92.729 104.2 92.762 104.201 92.1686 104.112C91.402 103.399 91.5197 90.8291 92.1553 89.2121C92.4844 88.3751 97.2739 88.4899 98.1832 88.478Z" fill="#6E6E73"/>
<path d="M236.884 88.4799C238.831 88.4405 244.832 88.1615 246.272 88.9458C247.567 90.9806 246.736 99.8973 246.935 102.683C246.978 103.303 246.848 103.946 246.332 104.342C245.706 104.401 245.908 104.474 245.47 104.167C245.067 103.347 245.214 101.714 245.228 100.707C245.178 97.469 245.189 93.8326 244.982 90.637C242.035 90.2712 238.94 90.5255 235.976 90.4219C234.675 90.3765 232.043 90.6649 231.374 89.3498L231.544 88.9396C232.492 88.3594 235.651 88.4927 236.884 88.4799Z" fill="#6E6E73"/>
<path fill-rule="evenodd" clip-rule="evenodd" d="M131.25 181.234C132.251 180.63 133.454 180.458 134.584 180.757C136.623 181.291 137.65 183.065 138.66 184.713C149.012 184.648 159.364 184.643 169.716 184.698C169.971 185.152 169.921 185.389 169.927 185.933C169.877 186.033 169.76 186.289 169.701 186.367C159.701 186.686 148.83 186.431 138.789 186.406C137.51 187.737 136.416 189.845 134.57 190.405C131.716 191.271 129.533 188.781 128.782 186.353L104.3 186.432C100.481 186.432 96.568 186.435 92.7418 186.392C92.2451 186.387 92.1314 186.355 91.8833 186.075C91.8704 185.534 91.7569 185.281 92.0091 184.944C93.7129 184.296 124.545 184.67 128.793 184.687C129.201 183.29 129.973 182 131.25 181.234ZM134.331 188.484C138.518 186.219 136.424 182.261 132.68 182.501C131.28 183.427 130.999 183.798 130.269 185.397C131.172 187.105 132.022 189.131 134.331 188.484Z" fill="#6E6E73"/>
<path d="M169.714 184.698C173.164 184.746 205.025 184.516 206.124 184.993C206.506 185.452 206.612 185.512 206.707 186.074C206.126 186.612 201.388 186.455 200.145 186.465C196.165 186.523 192.182 186.51 188.202 186.425C182.574 186.35 176.957 186.553 171.335 186.221C170.711 186.185 170.295 186.146 169.698 186.366C169.758 186.288 169.875 186.033 169.924 185.933C169.918 185.389 169.969 185.152 169.714 184.698Z" fill="#6E6E73"/>
<path fill-rule="evenodd" clip-rule="evenodd" d="M245.598 75.5071C249.487 75.5098 254.785 74.8349 257.675 77.7717C258.409 78.4861 259.621 80.3052 259.676 81.3496C260.079 88.8824 259.843 96.6692 259.843 104.192L259.82 156.159C261.103 156.673 262.319 157.34 263.441 158.15C267.614 161.163 270.843 166.453 271.622 171.539C272.653 178.566 269.905 185.617 264.39 190.093C262.768 191.417 260.482 192.497 259.311 194.192C256.107 200.243 251.9 199.045 245.815 198.975C242.178 198.915 238.538 198.915 234.9 198.977C218.427 199.277 201.952 199.367 185.477 199.245L116.138 199.248L95.6542 199.229C92.4313 199.237 89.1918 199.374 85.9795 199.312C84.1408 199.317 83.2127 199.038 81.7588 197.988C77.8998 195.202 78.7515 190.705 78.7414 186.284L78.761 174.365L78.7258 103.323L78.7401 91.0661C78.7107 84.136 77.1093 76.3574 86.3706 75.6147C86.9596 75.5421 88.5804 75.5301 89.2055 75.5313C101.32 75.5553 113.445 75.5148 125.558 75.513L233.068 75.5339L245.598 75.5071ZM230.254 173.686C226.132 173.524 222.007 173.493 217.884 173.593C203.825 173.817 189.622 173.778 175.556 173.699C143.987 173.521 112.315 174.023 80.755 173.678C80.67 177.995 80.6252 182.312 80.6213 186.631C80.6175 187.759 80.5734 188.972 80.6187 190.08C80.74 192.18 80.2724 194.307 81.9394 195.932C83.2733 197.232 84.3712 197.367 86.1614 197.406C89.5843 197.481 93.0042 197.454 96.4247 197.445L121.164 197.406L214.466 197.432C227.06 197.344 239.693 197.958 252.28 197.215C253.755 197.129 257.356 196.494 257.309 194.51C256.821 194.26 256.43 194.657 255.946 194.789C246.352 197.416 235.788 191.706 232.08 182.582C230.747 179.303 230.616 176.997 230.254 173.686ZM246.234 77.52L99.4988 77.5363C95.0243 77.5388 90.5265 77.5241 86.0551 77.5957C84.4856 77.628 82.9141 77.9712 81.8325 79.207C81.1209 80.0199 80.797 80.6999 80.7563 81.7812C80.6046 85.8111 80.6838 89.898 80.6904 93.9309L80.6898 150.484C80.6813 157.538 80.5613 164.922 80.7452 171.946C88.2139 171.597 97.1692 171.794 104.716 171.797L196.947 171.822C204.746 171.805 212.546 171.865 220.344 172.001C223.658 172.036 227.269 171.956 230.546 172.063C230.823 168.76 233.677 162.718 236.278 160.623C237.613 160.179 239.531 157.905 240.402 157.798C240.615 158.25 240.579 158.02 240.512 158.514C239.37 159.744 237.274 160.147 236.959 161.851C236.958 161.853 236.957 161.854 236.956 161.855C231.334 168.001 230.368 177.091 234.573 184.279C238.778 191.47 247.176 195.082 255.287 193.193C263.401 191.303 269.336 184.352 269.932 176.044C270.529 167.737 265.645 160.009 257.887 156.981C255.602 156.089 253.219 155.665 250.861 155.68C253.221 155.664 255.604 156.088 257.89 156.981C257.665 156.146 258.217 155.499 257.853 154.854C257.673 148.774 257.783 142.182 257.783 136.075L257.79 103.957C257.797 96.9165 257.925 89.4557 257.598 82.3978C257.553 81.4445 257.379 79.7828 256.733 79.0636C255.954 78.2639 254.796 77.6717 253.675 77.6126C251.205 77.4826 248.71 77.522 246.234 77.52Z" fill="#6E6E73"/>
<path d="M258.838 168.271C259.584 168.308 259.615 168.321 259.977 168.91C260.009 169.798 258.975 171.066 258.335 171.558C256.46 172.998 250.648 180.473 248.895 180.997C248.35 180.669 245.134 177.649 244.084 176.808C243.212 176.194 242.531 175.416 243.198 174.377C244.552 174.041 247.671 177.491 249.027 178.519C251.075 176.893 253.247 174.227 255.06 172.271C256.056 171.194 257.663 168.975 258.838 168.271Z" fill="#6E6E73"/>
<path fill-rule="evenodd" clip-rule="evenodd" d="M68.8568 41.8466C69.4116 41.7873 69.7001 41.6916 70.1788 41.9209C70.8066 42.6535 70.9642 46.442 71.5398 48.1786C73.3138 53.5315 74.7395 55.2583 80.2759 56.9257C80.9964 57.1427 83.0389 57.4902 83.5423 57.7575C83.8972 58.3131 83.8189 58.016 83.7737 58.6831C83.165 59.6492 80.1514 60.0437 78.8894 60.4985C71.8322 63.0426 71.321 68.4926 70.3189 75.2087C69.7409 75.3674 69.5451 75.4685 68.9689 75.3899C68.1673 74.6506 68.5528 73.4176 68.4546 72.3621C68.2841 70.5289 67.8465 68.95 67.2448 67.2301C65.4336 62.0539 61.3302 60.5486 56.5135 59.2026C56.104 59.0881 55.7865 58.764 55.625 58.3298C56.2843 57.3583 61.3023 56.4062 63.0886 55.2948C66.6707 53.0664 67.4385 49.4364 68.3679 45.5654C68.6703 44.3064 68.4689 43.2242 68.8568 41.8466ZM69.628 48.4622C68.003 53.9021 65.4631 56.7084 60.0523 58.3389C62.7407 59.3397 64.6373 60.4808 66.5832 62.6405C68.3152 64.5629 68.7233 66.1354 69.6723 68.4562L69.948 68.4654C71.126 62.7063 74.2754 60.3944 79.5686 58.292C75.5816 57.1573 73.5469 56.1299 71.2856 52.3263C70.7504 51.426 69.9105 48.6993 69.628 48.4622Z" fill="#6E6E73"/>
</svg>
