<svg width="20" height="20" viewBox="0 0 20 20" fill="none" xmlns="http://www.w3.org/2000/svg">
<path d="M11.6641 12.3443V7.65506C11.6641 5.03406 11.6641 3.72356 10.893 3.39742C10.1219 3.07128 9.21432 3.99795 7.39933 5.85127C6.45939 6.81105 5.92311 7.02358 4.58577 7.02358C3.41621 7.02358 2.83143 7.02358 2.41136 7.31019C1.53936 7.90513 1.67117 9.06801 1.67117 9.99967C1.67117 10.9313 1.53936 12.0942 2.41136 12.6892C2.83143 12.9758 3.41621 12.9758 4.58577 12.9758C5.92311 12.9758 6.45939 13.1883 7.39933 14.1481C9.21432 16.0014 10.1219 16.9281 10.893 16.6019C11.6641 16.2758 11.6641 14.9653 11.6641 12.3443Z" stroke="white" stroke-width="1.25" stroke-linecap="round" stroke-linejoin="round"/>
<path d="M15 8.33301L18.3333 11.6663M15 11.6663L18.3333 8.33301" stroke="white" stroke-width="1.25" stroke-linecap="round"/>
</svg>
