<svg width="111" height="28" viewBox="0 0 111 28" fill="none" xmlns="http://www.w3.org/2000/svg">
<path d="M16.4007 7.06712C23.5828 7.06712 25.3889 11.7807 23.9363 13.9482C24.4898 14.8681 24.4745 16.7659 23.8908 17.6324C25.3268 19.8059 23.5132 24.5 16.3461 24.5V20.9904C18.2048 21.0479 22.2998 20.439 23.8217 17.5453C23.4979 16.9295 22.9112 16.173 22.2693 15.7548C22.9003 15.2326 23.4595 14.6042 23.8315 13.9386C22.2756 11.1165 18.2416 10.5197 16.4008 10.5766V13.9137C17.7625 13.9329 20.8424 14.328 22.2693 15.7548C21.0823 17.0549 17.6295 17.466 16.4611 17.48V20.9329C9.36187 20.9329 7.51511 16.3272 8.87638 14.1277C8.30694 13.2075 8.323 11.2664 8.9247 10.4041C9.29567 11.1003 9.87524 11.759 10.5323 12.3027C9.91197 12.7068 9.34305 13.4268 9.01325 14.0305C10.54 16.8486 14.5266 17.4671 16.4008 17.4247V14.0288C15.2961 14.0288 11.7405 13.626 10.5323 12.3027C11.9591 10.8759 15.039 10.4808 16.4007 10.4616V7.06712Z" fill="#2E2EE5"/>
<path d="M16.5157 7.00959C14.6554 6.95207 10.5552 7.56194 9.03629 10.4616C7.4829 8.33287 9.24348 3.50002 16.5157 3.5V7.00959Z" fill="#2E2EE5"/>
<path d="M43.4036 12.0368L41.7195 12.335C41.649 12.1196 41.5372 11.9145 41.3839 11.7198C41.2347 11.5251 41.0317 11.3656 40.7749 11.2413C40.518 11.117 40.1969 11.0549 39.8116 11.0549C39.2855 11.0549 38.8463 11.1729 38.4941 11.4091C38.142 11.6411 37.9659 11.9415 37.9659 12.3102C37.9659 12.6292 38.084 12.8861 38.3201 13.0808C38.5563 13.2755 38.9374 13.435 39.4636 13.5593L40.9799 13.9073C41.8583 14.1103 42.5128 14.4231 42.9437 14.8457C43.3746 15.2683 43.59 15.8172 43.59 16.4925C43.59 17.0643 43.4243 17.5739 43.0929 18.0213C42.7656 18.4646 42.3078 18.8126 41.7195 19.0653C41.1353 19.3181 40.4579 19.4444 39.6873 19.4444C38.6184 19.4444 37.7463 19.2166 37.071 18.7608C36.3957 18.301 35.9814 17.6484 35.8281 16.8033L37.6241 16.5298C37.736 16.998 37.9659 17.3522 38.3139 17.5925C38.6619 17.8287 39.1156 17.9467 39.6749 17.9467C40.2839 17.9467 40.7707 17.8204 41.1353 17.5676C41.4999 17.3108 41.6822 16.998 41.6822 16.6293C41.6822 16.331 41.5703 16.0803 41.3466 15.8773C41.127 15.6743 40.7894 15.521 40.3336 15.4174L38.7179 15.0632C37.8271 14.8602 37.1684 14.537 36.7417 14.0937C36.3191 13.6504 36.1078 13.0891 36.1078 12.4096C36.1078 11.8462 36.2652 11.3532 36.5801 10.9306C36.8949 10.508 37.33 10.1786 37.8851 9.94247C38.4403 9.70218 39.0762 9.58203 39.793 9.58203C40.8246 9.58203 41.6366 9.80575 42.229 10.2532C42.8215 10.6965 43.213 11.291 43.4036 12.0368Z" fill="#121213"/>
<path d="M46.1076 22.8313C45.83 22.8313 45.5773 22.8085 45.3494 22.763C45.1215 22.7215 44.9517 22.676 44.8398 22.6262L45.2873 21.1037C45.627 21.1948 45.9294 21.2342 46.1946 21.2218C46.4597 21.2093 46.6938 21.1099 46.8968 20.9235C47.104 20.737 47.2863 20.4325 47.4437 20.0099L47.6736 19.3761L44.1811 9.70632H46.1697L48.5872 17.114H48.6866L51.104 9.70632H53.0989L49.1651 20.5257C48.9828 21.0229 48.7508 21.4434 48.4691 21.7873C48.1874 22.1353 47.8518 22.3963 47.4623 22.5703C47.0729 22.7443 46.6213 22.8313 46.1076 22.8313Z" fill="#121213"/>
<path d="M56.0033 13.5842V19.2518H54.1451V9.70632H55.9287V11.2599H56.0468C56.2664 10.7545 56.6102 10.3485 57.0784 10.0419C57.5507 9.73532 58.1452 9.58203 58.8619 9.58203C59.5124 9.58203 60.0821 9.71875 60.5709 9.99219C61.0598 10.2615 61.4389 10.6634 61.7082 11.1978C61.9775 11.7322 62.1121 12.3931 62.1121 13.1802V19.2518H60.254V13.4039C60.254 12.7121 60.0738 12.1714 59.7133 11.782C59.3529 11.3884 58.8578 11.1916 58.2281 11.1916C57.7972 11.1916 57.414 11.2848 57.0784 11.4712C56.7469 11.6577 56.4839 11.9311 56.2891 12.2915C56.0986 12.6478 56.0033 13.0787 56.0033 13.5842Z" fill="#121213"/>
<path d="M67.9249 19.4444C67.001 19.4444 66.2056 19.2352 65.5385 18.8168C64.8757 18.3942 64.3661 17.8121 64.0098 17.0705C63.6535 16.3289 63.4753 15.4796 63.4753 14.5225C63.4753 13.5531 63.6576 12.6976 64.0222 11.956C64.3868 11.2102 64.9005 10.6281 65.5634 10.2097C66.2263 9.79125 67.0072 9.58203 67.9063 9.58203C68.6313 9.58203 69.2776 9.71668 69.8452 9.98597C70.4128 10.2511 70.8706 10.624 71.2186 11.1046C71.5707 11.5852 71.78 12.1465 71.8462 12.7887H70.0378C69.9384 12.3413 69.7105 11.956 69.3542 11.6328C69.0021 11.3097 68.5298 11.1481 67.9373 11.1481C67.4195 11.1481 66.9658 11.2848 66.5764 11.5582C66.1911 11.8275 65.8907 12.2128 65.6753 12.7141C65.4598 13.2113 65.3521 13.7996 65.3521 14.479C65.3521 15.1751 65.4578 15.7758 65.669 16.2812C65.8803 16.7867 66.1786 17.1782 66.5639 17.4558C66.9534 17.7334 67.4112 17.8722 67.9373 17.8722C68.2895 17.8722 68.6085 17.8079 68.8944 17.6795C69.1844 17.5469 69.4267 17.3584 69.6215 17.114C69.8203 16.8696 69.9591 16.5754 70.0378 16.2315H71.8462C71.78 16.8488 71.579 17.3999 71.2434 17.8846C70.9079 18.3693 70.4583 18.7505 69.8949 19.0281C69.3356 19.3056 68.6789 19.4444 67.9249 19.4444Z" fill="#121213"/>
<path d="M74.3576 19.3699C74.0179 19.3699 73.7258 19.2497 73.4813 19.0094C73.2369 18.765 73.1147 18.4708 73.1147 18.127C73.1147 17.7872 73.2369 17.4972 73.4813 17.2569C73.7258 17.0125 74.0179 16.8903 74.3576 16.8903C74.6973 16.8903 74.9894 17.0125 75.2338 17.2569C75.4783 17.4972 75.6005 17.7872 75.6005 18.127C75.6005 18.3548 75.5425 18.564 75.4265 18.7546C75.3146 18.9411 75.1655 19.0902 74.979 19.2021C74.7926 19.3139 74.5854 19.3699 74.3576 19.3699Z" fill="#121213"/>
<path d="M79.5593 6.52344V19.2507H78.4531V6.52344H79.5593Z" fill="#2E2EE5"/>
<path d="M84.4523 19.4682C83.8765 19.4682 83.3503 19.3564 82.8739 19.1326C82.3974 18.9048 82.0183 18.5775 81.7366 18.1507C81.4549 17.7199 81.314 17.1979 81.314 16.5847C81.314 16.1124 81.4031 15.7147 81.5813 15.3915C81.7594 15.0684 82.0121 14.8032 82.3394 14.5961C82.6667 14.3889 83.0541 14.2253 83.5015 14.1051C83.949 13.985 84.442 13.8917 84.9806 13.8255C85.515 13.7592 85.9666 13.7012 86.3353 13.6515C86.7082 13.6017 86.992 13.523 87.1867 13.4153C87.3814 13.3076 87.4788 13.1336 87.4788 12.8933V12.6696C87.4788 12.0191 87.2841 11.5075 86.8946 11.1346C86.5093 10.7576 85.9542 10.5691 85.2292 10.5691C84.5414 10.5691 83.98 10.7203 83.545 11.0227C83.1142 11.3252 82.8117 11.6815 82.6377 12.0916L81.5875 11.7125C81.8029 11.1905 82.1012 10.7741 82.4824 10.4634C82.8635 10.1486 83.2902 9.92276 83.7625 9.78604C84.2348 9.64518 84.7134 9.57475 85.1981 9.57475C85.5627 9.57475 85.9417 9.6224 86.3353 9.71768C86.7331 9.81297 87.1018 9.97869 87.4415 10.2148C87.7812 10.4469 88.0567 10.7721 88.268 11.1905C88.4793 11.6048 88.585 12.131 88.585 12.769V19.2507H87.4788V17.7406H87.4104C87.2779 18.0223 87.0811 18.2958 86.8201 18.5609C86.5591 18.8261 86.2318 19.0436 85.8382 19.2134C85.4446 19.3833 84.9826 19.4682 84.4523 19.4682ZM84.6015 18.4553C85.1898 18.4553 85.6994 18.3248 86.1303 18.0637C86.5611 17.8027 86.8926 17.4568 87.1246 17.0259C87.3607 16.5909 87.4788 16.1124 87.4788 15.5904V14.2108C87.3959 14.2895 87.2571 14.3599 87.0624 14.4221C86.8719 14.4842 86.6502 14.5401 86.3975 14.5898C86.1489 14.6354 85.9003 14.6748 85.6517 14.7079C85.4032 14.7411 85.1794 14.7701 84.9806 14.7949C84.442 14.8612 83.9821 14.9648 83.601 15.1056C83.2198 15.2465 82.9277 15.4412 82.7247 15.6898C82.5217 15.9342 82.4202 16.2491 82.4202 16.6344C82.4202 17.2144 82.6274 17.6639 83.0417 17.983C83.456 18.2978 83.9759 18.4553 84.6015 18.4553Z" fill="#2E2EE5"/>
<path d="M91.0575 19.2507V6.52344H92.1699V11.5261H92.2693C92.3936 11.2402 92.5717 10.9461 92.8037 10.6436C93.0399 10.3412 93.3485 10.0885 93.7297 9.88548C94.115 9.67833 94.5997 9.57475 95.1839 9.57475C95.9669 9.57475 96.6547 9.7819 97.2471 10.1962C97.8396 10.6064 98.3015 11.1822 98.6329 11.9238C98.9644 12.6613 99.1301 13.521 99.1301 14.5028C99.1301 15.4889 98.9644 16.3527 98.6329 17.0943C98.3056 17.8359 97.8458 18.4138 97.2533 18.8281C96.665 19.2424 95.9814 19.4496 95.2025 19.4496C94.6225 19.4496 94.1378 19.346 93.7483 19.1388C93.3631 18.9317 93.0523 18.6769 92.8162 18.3745C92.58 18.0679 92.3977 17.7696 92.2693 17.4796H92.1326V19.2507H91.0575ZM92.1512 14.4842C92.1512 15.2548 92.2652 15.9384 92.493 16.535C92.725 17.1274 93.0565 17.5935 93.4873 17.9332C93.9224 18.2688 94.4485 18.4366 95.0658 18.4366C95.6997 18.4366 96.2362 18.2626 96.6754 17.9146C97.1145 17.5624 97.448 17.0881 97.6759 16.4915C97.9038 15.8949 98.0177 15.2258 98.0177 14.4842C98.0177 13.7509 97.9038 13.0901 97.6759 12.5018C97.4522 11.9135 97.1207 11.4474 96.6816 11.1035C96.2424 10.7555 95.7038 10.5815 95.0658 10.5815C94.4444 10.5815 93.9161 10.7493 93.4811 11.0849C93.0503 11.4163 92.7209 11.8762 92.493 12.4645C92.2652 13.0487 92.1512 13.7219 92.1512 14.4842Z" fill="#2E2EE5"/>
<path d="M107.273 11.7995L106.26 12.0854C106.161 11.7995 106.02 11.5406 105.838 11.3086C105.655 11.0766 105.417 10.8922 105.123 10.7555C104.833 10.6188 104.473 10.5504 104.042 10.5504C103.395 10.5504 102.865 10.7037 102.451 11.0103C102.037 11.3169 101.829 11.7125 101.829 12.1973C101.829 12.6074 101.97 12.9409 102.252 13.1978C102.538 13.4505 102.977 13.6515 103.569 13.8006L105.011 14.1548C105.811 14.3496 106.409 14.6582 106.807 15.0808C107.209 15.5034 107.41 16.0337 107.41 16.6717C107.41 17.2103 107.261 17.6888 106.963 18.1072C106.664 18.5257 106.248 18.8551 105.713 19.0953C105.183 19.3315 104.568 19.4496 103.868 19.4496C102.936 19.4496 102.167 19.2404 101.562 18.8219C100.957 18.3993 100.57 17.7903 100.4 16.9949L101.463 16.7338C101.599 17.3014 101.867 17.7302 102.264 18.0202C102.666 18.3103 103.195 18.4553 103.849 18.4553C104.582 18.4553 105.169 18.2916 105.608 17.9643C106.047 17.6329 106.267 17.2186 106.267 16.7214C106.267 16.3361 106.138 16.013 105.881 15.752C105.624 15.4868 105.235 15.2921 104.713 15.1678L103.153 14.7949C102.325 14.5961 101.711 14.2812 101.314 13.8503C100.916 13.4194 100.717 12.885 100.717 12.247C100.717 11.7208 100.86 11.2589 101.146 10.8612C101.432 10.4593 101.825 10.1444 102.327 9.91655C102.828 9.68868 103.4 9.57475 104.042 9.57475C104.916 9.57475 105.614 9.77361 106.136 10.1713C106.662 10.5649 107.041 11.1077 107.273 11.7995Z" fill="#2E2EE5"/>
</svg>
