<svg width="95" height="24" viewBox="0 0 95 24" fill="none" xmlns="http://www.w3.org/2000/svg">
<path d="M14.0555 6.05753C20.2116 6.05753 21.7597 10.0978 20.5146 11.9556C20.9891 12.7441 20.9759 14.3707 20.4756 15.1135C21.7065 16.9765 20.152 21 14.0087 21V17.9918C15.6019 18.0411 19.1119 17.5191 20.4164 15.0388C20.1388 14.511 19.636 13.8625 19.0857 13.5041C19.6266 13.0566 20.1059 12.5179 20.4247 11.9474C19.0911 9.52843 15.6335 9.01687 14.0556 9.06566V11.926C15.2227 11.9425 17.8627 12.2811 19.0857 13.5041C18.0683 14.6184 15.1087 14.9708 14.1073 14.9829V17.9425C8.02223 17.9425 6.43929 13.9948 7.6061 12.1094C7.11801 11.3207 7.13177 9.6569 7.64751 8.91781C7.96548 9.51452 8.46226 10.0792 9.02545 10.5452C8.49374 10.8915 8.00609 11.5087 7.72341 12.0261C9.03208 14.4417 12.4492 14.9718 14.0556 14.9355V12.0247C13.1087 12.0247 10.0611 11.6794 9.02545 10.5452C10.2485 9.32223 12.8883 8.98357 14.0555 8.96712V6.05753Z" fill="white"/>
<path d="M14.1541 6.00822C12.5596 5.95891 9.04506 6.48167 7.74316 8.96712C6.41168 7.14246 7.92075 3.00002 14.1541 3V6.00822Z" fill="white"/>
<path d="M37.2042 10.315L35.7607 10.5707C35.7003 10.386 35.6044 10.2102 35.473 10.0433C35.3452 9.87642 35.1712 9.7397 34.951 9.63317C34.7308 9.52663 34.4556 9.47337 34.1254 9.47337C33.6744 9.47337 33.2979 9.57457 32.9961 9.77699C32.6942 9.97585 32.5433 10.2333 32.5433 10.5494C32.5433 10.8228 32.6445 11.043 32.8469 11.2099C33.0494 11.3768 33.3761 11.5135 33.8271 11.62L35.1268 11.9183C35.8796 12.0923 36.4407 12.3604 36.81 12.7227C37.1793 13.0849 37.364 13.5554 37.364 14.1342C37.364 14.6243 37.2219 15.0611 36.9379 15.4446C36.6573 15.8246 36.2649 16.1229 35.7607 16.3395C35.2599 16.5561 34.6793 16.6644 34.0188 16.6644C33.1026 16.6644 32.3551 16.4691 31.7763 16.0785C31.1974 15.6843 30.8423 15.125 30.7109 14.4006L32.2504 14.1662C32.3462 14.5675 32.5433 14.8711 32.8416 15.0771C33.1399 15.2795 33.5288 15.3807 34.0082 15.3807C34.5302 15.3807 34.9474 15.2724 35.2599 15.0558C35.5724 14.8356 35.7287 14.5675 35.7287 14.2514C35.7287 13.9957 35.6328 13.7809 35.4411 13.6069C35.2528 13.4329 34.9634 13.3015 34.5728 13.2127L33.1879 12.9091C32.4244 12.7351 31.8597 12.4581 31.494 12.0781C31.1317 11.6982 30.9506 11.217 30.9506 10.6346C30.9506 10.1516 31.0856 9.72905 31.3555 9.36683C31.6254 9.00462 31.9982 8.7223 32.4741 8.51989C32.9499 8.31392 33.495 8.21094 34.1094 8.21094C34.9936 8.21094 35.6896 8.4027 36.1974 8.78622C36.7053 9.16619 37.0408 9.67578 37.2042 10.315Z" fill="white"/>
<path d="M39.5219 19.5675C39.284 19.5675 39.0673 19.5479 38.872 19.5089C38.6767 19.4734 38.5311 19.4343 38.4352 19.3917L38.8188 18.0866C39.11 18.1648 39.3692 18.1985 39.5965 18.1879C39.8237 18.1772 40.0244 18.092 40.1984 17.9322C40.3759 17.7724 40.5322 17.5114 40.6671 17.1491L40.8642 16.6058L37.8706 8.31747H39.5752L41.6472 14.6669H41.7325L43.8046 8.31747H45.5144L42.1426 17.5913C41.9864 18.0174 41.7875 18.3778 41.546 18.6726C41.3046 18.9709 41.0169 19.1946 40.6831 19.3438C40.3493 19.4929 39.9622 19.5675 39.5219 19.5675Z" fill="white"/>
<path d="M48.0039 11.6413V16.4993H46.4112V8.31747H47.94V9.64915H48.0412C48.2294 9.21591 48.5242 8.8679 48.9254 8.60511C49.3303 8.34233 49.8399 8.21094 50.4542 8.21094C51.0117 8.21094 51.5 8.32812 51.9191 8.5625C52.3381 8.79332 52.663 9.13778 52.8938 9.59588C53.1247 10.054 53.2401 10.6204 53.2401 11.2951V16.4993H51.6474V11.4869C51.6474 10.8938 51.4929 10.4304 51.184 10.0966C50.875 9.75923 50.4507 9.59055 49.9109 9.59055C49.5416 9.59055 49.2131 9.67045 48.9254 9.83026C48.6414 9.99006 48.4159 10.2244 48.249 10.5334C48.0856 10.8388 48.0039 11.2081 48.0039 11.6413Z" fill="white"/>
<path d="M58.2225 16.6644C57.4306 16.6644 56.7487 16.4851 56.177 16.1264C55.6088 15.7642 55.172 15.2653 54.8666 14.6296C54.5612 13.994 54.4085 13.266 54.4085 12.4457C54.4085 11.6147 54.5648 10.8814 54.8773 10.2457C55.1898 9.60653 55.6301 9.1076 56.1983 8.74893C56.7665 8.39027 57.4359 8.21094 58.2065 8.21094C58.8279 8.21094 59.3819 8.32635 59.8684 8.55717C60.3549 8.78445 60.7473 9.10405 61.0456 9.51598C61.3475 9.92791 61.5268 10.4091 61.5836 10.9595H60.0335C59.9483 10.576 59.753 10.2457 59.4476 9.96875C59.1458 9.69176 58.7409 9.55327 58.2331 9.55327C57.7892 9.55327 57.4004 9.67045 57.0666 9.90483C56.7363 10.1357 56.4789 10.4659 56.2942 10.8956C56.1095 11.3217 56.0172 11.826 56.0172 12.4084C56.0172 13.005 56.1078 13.5199 56.2889 13.9531C56.47 14.3864 56.7257 14.7219 57.0559 14.9599C57.3897 15.1978 57.7821 15.3168 58.2331 15.3168C58.535 15.3168 58.8084 15.2617 59.0534 15.1516C59.302 15.038 59.5097 14.8764 59.6767 14.6669C59.8471 14.4574 59.9661 14.2053 60.0335 13.9105H61.5836C61.5268 14.4396 61.3546 14.9119 61.0669 15.3274C60.7793 15.7429 60.394 16.0696 59.911 16.3075C59.4316 16.5455 58.8688 16.6644 58.2225 16.6644Z" fill="white"/>
<path d="M63.7362 16.6005C63.445 16.6005 63.1946 16.4975 62.9851 16.2915C62.7756 16.082 62.6708 15.8299 62.6708 15.5352C62.6708 15.244 62.7756 14.9954 62.9851 14.7894C63.1946 14.5799 63.445 14.4751 63.7362 14.4751C64.0274 14.4751 64.2777 14.5799 64.4873 14.7894C64.6968 14.9954 64.8015 15.244 64.8015 15.5352C64.8015 15.7305 64.7518 15.9098 64.6524 16.0732C64.5565 16.233 64.4287 16.3608 64.2689 16.4567C64.1091 16.5526 63.9315 16.6005 63.7362 16.6005Z" fill="white"/>
<path d="M68.1982 5.5918V16.5009H67.25V5.5918H68.1982Z" fill="white" fill-opacity="0.5"/>
<path d="M72.3922 16.6873C71.8986 16.6873 71.4476 16.5914 71.0392 16.3997C70.6308 16.2044 70.3059 15.9238 70.0644 15.5581C69.8229 15.1887 69.7022 14.7413 69.7022 14.2157C69.7022 13.8109 69.7786 13.47 69.9313 13.193C70.0839 12.916 70.3006 12.6887 70.5811 12.5112C70.8616 12.3336 71.1937 12.1934 71.5772 12.0904C71.9607 11.9874 72.3833 11.9075 72.845 11.8507C73.3031 11.7939 73.6901 11.7441 74.0062 11.7015C74.3258 11.6589 74.569 11.5914 74.7359 11.4991C74.9028 11.4068 74.9863 11.2576 74.9863 11.0517V10.8599C74.9863 10.3024 74.8194 9.86381 74.4856 9.54421C74.1553 9.22106 73.6795 9.05948 73.058 9.05948C72.4685 9.05948 71.9874 9.1891 71.6145 9.44833C71.2452 9.70756 70.9859 10.013 70.8368 10.3645L69.9366 10.0396C70.1212 9.59215 70.3769 9.23526 70.7036 8.96893C71.0303 8.69904 71.3961 8.5055 71.8009 8.38832C72.2058 8.26758 72.6159 8.20721 73.0314 8.20721C73.3439 8.20721 73.6688 8.24805 74.0062 8.32972C74.3471 8.4114 74.6631 8.55344 74.9543 8.75586C75.2455 8.95472 75.4817 9.23349 75.6628 9.59215C75.8439 9.94727 75.9344 10.3983 75.9344 10.9451V16.5009H74.9863V15.2065H74.9277C74.8141 15.448 74.6454 15.6824 74.4217 15.9096C74.1979 16.1369 73.9174 16.3233 73.58 16.4689C73.2427 16.6145 72.8467 16.6873 72.3922 16.6873ZM72.52 15.8191C73.0243 15.8191 73.4611 15.7072 73.8304 15.4835C74.1997 15.2598 74.4838 14.9632 74.6827 14.5939C74.8851 14.2211 74.9863 13.8109 74.9863 13.3635V12.1809C74.9153 12.2484 74.7963 12.3088 74.6294 12.362C74.4661 12.4153 74.2761 12.4632 74.0594 12.5059C73.8464 12.5449 73.6333 12.5787 73.4202 12.6071C73.2072 12.6355 73.0154 12.6603 72.845 12.6816C72.3833 12.7385 71.9891 12.8272 71.6624 12.948C71.3357 13.0687 71.0854 13.2356 70.9114 13.4487C70.7374 13.6582 70.6504 13.9281 70.6504 14.2583C70.6504 14.7555 70.8279 15.1408 71.183 15.4142C71.5381 15.6841 71.9838 15.8191 72.52 15.8191Z" fill="white" fill-opacity="0.5"/>
<path d="M78.0537 16.5009V5.5918H79.0072V9.87979H79.0924C79.199 9.63477 79.3517 9.38264 79.5505 9.1234C79.7529 8.86417 80.0175 8.64755 80.3442 8.47354C80.6745 8.29599 81.09 8.20721 81.5907 8.20721C82.2618 8.20721 82.8513 8.38477 83.3591 8.73988C83.8669 9.09144 84.2629 9.58505 84.547 10.2207C84.8311 10.8528 84.9731 11.5897 84.9731 12.4313C84.9731 13.2765 84.8311 14.0169 84.547 14.6525C84.2664 15.2882 83.8723 15.7836 83.3645 16.1387C82.8602 16.4938 82.2743 16.6713 81.6066 16.6713C81.1095 16.6713 80.694 16.5826 80.3602 16.405C80.0299 16.2275 79.7636 16.0091 79.5612 15.7498C79.3588 15.487 79.2025 15.2314 79.0924 14.9828H78.9752V16.5009H78.0537ZM78.9912 12.4153C78.9912 13.0758 79.0889 13.6618 79.2842 14.1731C79.4831 14.6809 79.7672 15.0804 80.1365 15.3716C80.5093 15.6593 80.9603 15.8031 81.4895 15.8031C82.0328 15.8031 82.4926 15.6539 82.8691 15.3556C83.2455 15.0538 83.5314 14.6472 83.7267 14.1358C83.922 13.6245 84.0196 13.051 84.0196 12.4153C84.0196 11.7868 83.922 11.2203 83.7267 10.7161C83.5349 10.2118 83.2508 9.81232 82.8744 9.51758C82.498 9.21928 82.0363 9.07014 81.4895 9.07014C80.9568 9.07014 80.504 9.21396 80.1311 9.5016C79.7618 9.78569 79.4795 10.1799 79.2842 10.6841C79.0889 11.1848 78.9912 11.7619 78.9912 12.4153Z" fill="white" fill-opacity="0.5"/>
<path d="M91.953 10.1142L91.0848 10.3592C90.9995 10.1142 90.8788 9.89222 90.7226 9.69336C90.5663 9.4945 90.3621 9.33647 90.11 9.21928C89.8614 9.1021 89.5525 9.0435 89.1831 9.0435C88.6292 9.0435 88.1746 9.17489 87.8195 9.43768C87.4644 9.70046 87.2868 10.0396 87.2868 10.4551C87.2868 10.8066 87.4076 11.0925 87.649 11.3127C87.8941 11.5293 88.2705 11.7015 88.7783 11.8294L90.0141 12.133C90.6995 12.2999 91.2126 12.5645 91.5535 12.9267C91.898 13.2889 92.0702 13.7434 92.0702 14.2903C92.0702 14.752 91.9424 15.1621 91.6867 15.5208C91.431 15.8794 91.0741 16.1618 90.616 16.3677C90.1615 16.5701 89.6341 16.6713 89.034 16.6713C88.235 16.6713 87.5762 16.492 87.0578 16.1333C86.5393 15.7711 86.2073 15.2491 86.0617 14.5673L86.9726 14.3436C87.0897 14.8301 87.3188 15.1976 87.6597 15.4462C88.0042 15.6948 88.4569 15.8191 89.018 15.8191C89.6466 15.8191 90.149 15.6788 90.5255 15.3983C90.9019 15.1142 91.0901 14.7591 91.0901 14.3329C91.0901 14.0027 90.98 13.7257 90.7598 13.502C90.5397 13.2747 90.2059 13.1078 89.7584 13.0012L88.4214 12.6816C87.7112 12.5112 87.1856 12.2413 86.8447 11.872C86.5038 11.5027 86.3333 11.0446 86.3333 10.4977C86.3333 10.0467 86.4559 9.65075 86.7009 9.30984C86.9459 8.96538 87.2833 8.69549 87.713 8.50018C88.1427 8.30487 88.6327 8.20721 89.1831 8.20721C89.9324 8.20721 90.5308 8.37766 90.9782 8.71857C91.4292 9.05593 91.7542 9.52113 91.953 10.1142Z" fill="white" fill-opacity="0.5"/>
</svg>
