<svg width="20" height="20" viewBox="0 0 20 20" fill="none" xmlns="http://www.w3.org/2000/svg">
<path d="M12.5 6.66602C12.5 8.04672 11.3807 9.16602 10 9.16602C8.61925 9.16602 7.5 8.04672 7.5 6.66602C7.5 5.28531 8.61925 4.16602 10 4.16602C11.3807 4.16602 12.5 5.28531 12.5 6.66602Z" stroke="white" stroke-width="1.25" stroke-linecap="round" stroke-linejoin="round"/>
<path d="M13.3359 3.33398C14.7167 3.33398 15.8359 4.45328 15.8359 5.83398C15.8359 6.85323 15.226 7.73001 14.3512 8.11923" stroke="white" stroke-width="1.25" stroke-linecap="round" stroke-linejoin="round"/>
<path d="M11.4286 11.666H8.57143C6.59898 11.666 5 13.265 5 15.2374C5 16.0264 5.63959 16.666 6.42857 16.666H13.5714C14.3604 16.666 15 16.0264 15 15.2374C15 13.265 13.401 11.666 11.4286 11.666Z" stroke="white" stroke-width="1.25" stroke-linecap="round" stroke-linejoin="round"/>
<path d="M14.7656 10.834C16.738 10.834 18.337 12.433 18.337 14.4054C18.337 15.1944 17.6975 15.834 16.9085 15.834" stroke="white" stroke-width="1.25" stroke-linecap="round" stroke-linejoin="round"/>
<path d="M6.66406 3.33398C5.28335 3.33398 4.16406 4.45328 4.16406 5.83398C4.16406 6.85323 4.774 7.73001 5.6488 8.11923" stroke="white" stroke-width="1.25" stroke-linecap="round" stroke-linejoin="round"/>
<path d="M3.09264 15.834C2.30365 15.834 1.66406 15.1944 1.66406 14.4054C1.66406 12.433 3.26305 10.834 5.23549 10.834" stroke="white" stroke-width="1.25" stroke-linecap="round" stroke-linejoin="round"/>
</svg>
