<svg width="20" height="20" viewBox="0 0 20 20" fill="none" xmlns="http://www.w3.org/2000/svg">
<path d="M11.6719 12.3443V7.65506C11.6719 5.03406 11.6719 3.72356 10.9008 3.39742C10.1297 3.07128 9.22213 3.99795 7.40714 5.85127C6.4672 6.81105 5.93092 7.02358 4.59358 7.02358C3.42402 7.02358 2.83924 7.02358 2.41917 7.31019C1.54717 7.90513 1.67898 9.06801 1.67898 9.99967C1.67898 10.9313 1.54717 12.0942 2.41917 12.6892C2.83924 12.9758 3.42402 12.9758 4.59358 12.9758C5.93092 12.9758 6.4672 13.1883 7.40714 14.1481C9.22213 16.0014 10.1297 16.9281 10.9008 16.6019C11.6719 16.2758 11.6719 14.9653 11.6719 12.3443Z" stroke="white" stroke-width="1.25" stroke-linecap="round" stroke-linejoin="round"/>
<path d="M14.1719 7.5C14.693 8.18307 15.0052 9.05283 15.0052 10C15.0052 10.9472 14.693 11.8169 14.1719 12.5" stroke="white" stroke-width="1.25" stroke-linecap="round" stroke-linejoin="round"/>
<path d="M16.6719 5.83301C17.7142 6.97145 18.3385 8.42109 18.3385 9.99967C18.3385 11.5783 17.7142 13.0279 16.6719 14.1663" stroke="white" stroke-width="1.25" stroke-linecap="round" stroke-linejoin="round"/>
</svg>
